<svg width="176" height="123" viewBox="0 0 176 123" fill="none" xmlns="http://www.w3.org/2000/svg">
<path d="M9.10507 112.212L8.28104 113.964C7.00248 113.188 5.72393 112.87 4.82968 112.87C3.66937 112.87 2.91185 113.31 2.91185 114.1C2.91185 116.676 9.27505 115.294 9.26027 119.536C9.26027 121.639 7.40896 122.936 4.8149 122.936C2.96358 122.936 1.21204 122.178 0 121.066L0.857296 119.348C2.06933 120.46 3.58438 121.066 4.84816 121.066C6.23018 121.066 7.05422 120.545 7.05422 119.636C7.05422 117.008 0.69101 118.475 0.69101 114.281C0.69101 112.26 2.42408 111 4.98488 111C6.51101 111 8.01128 111.488 9.10507 112.212Z" fill="white"/>
<path d="M18.2761 112.87V116.051H24.0333V117.836H18.2761V121.084H24.909V122.869H16.288V111.085H24.7058V112.87H18.2761Z" fill="white"/>
<path d="M41.7376 112.851L40.5773 114.3C39.72 113.372 38.4895 112.803 37.2959 112.803C34.9383 112.803 33.087 114.621 33.087 116.946C33.087 119.27 34.9383 121.103 37.2959 121.103C38.4747 121.103 39.6867 120.563 40.5773 119.706L41.7561 121.018C40.5625 122.197 38.859 122.954 37.1924 122.954C33.7411 122.954 31.0657 120.345 31.0657 116.96C31.0657 113.609 33.7743 111.033 37.259 111.033C38.9292 111.033 40.5958 111.724 41.7376 112.851Z" fill="white"/>
<path d="M59.7479 116.975C59.7479 120.342 57.0208 122.95 53.503 122.95C49.9851 122.95 47.258 120.342 47.258 116.975C47.258 113.59 49.9851 111.033 53.503 111.033C57.0208 111.033 59.7479 113.609 59.7479 116.975ZM49.2756 116.975C49.2756 119.314 51.2119 121.166 53.5177 121.166C55.8236 121.166 57.7081 119.314 57.7081 116.975C57.7081 114.636 55.8236 112.818 53.5177 112.818C51.1971 112.818 49.2756 114.636 49.2756 116.975Z" fill="white"/>
<path d="M74.8448 122.869L68.5665 114.418V122.869H66.5785V111.085H68.5296L74.8411 119.551V111.085H76.7921V122.869H74.8448Z" fill="white"/>
<path d="M89.4547 111.085C92.9911 111.085 95.5482 113.561 95.5482 116.975C95.5482 120.375 92.9726 122.865 89.403 122.865H84.6213V111.081H89.4547V111.085ZM86.6094 121.084H89.5064C91.7938 121.084 93.5453 119.384 93.5453 116.993C93.5453 114.584 91.7458 112.87 89.4215 112.87H86.6094V121.084Z" fill="white"/>
<path d="M113.033 119.654C113.033 121.69 111.418 122.869 108.318 122.869H102.225V111.085H107.982C110.927 111.085 112.442 112.315 112.442 114.148C112.442 115.327 111.836 116.236 110.875 116.742C112.191 117.16 113.033 118.172 113.033 119.654ZM104.937 113.14V115.918H107.646C108.976 115.918 109.7 115.445 109.7 114.522C109.7 113.598 108.976 113.143 107.646 113.143H104.937V113.14ZM110.288 119.366C110.288 118.372 109.53 117.903 108.115 117.903H104.933V120.815H108.115C109.534 120.815 110.288 120.378 110.288 119.366Z" fill="white"/>
<path d="M127.323 122.869L125.05 119.588H124.917H122.545V122.869H119.818V111.085H124.917C128.065 111.085 130.035 112.718 130.035 115.36C130.035 117.127 129.144 118.424 127.611 119.081L130.253 122.869H127.323ZM124.762 113.306H122.541V117.415H124.762C126.428 117.415 127.271 116.639 127.271 115.36C127.271 114.063 126.428 113.306 124.762 113.306Z" fill="white"/>
<path d="M144.657 120.341H139.184L138.138 122.865H135.345L140.596 111.081H143.289L148.559 122.865H145.695L144.657 120.341ZM143.799 118.272L141.93 113.76L140.06 118.272H143.799Z" fill="white"/>
<path d="M154.501 111.085H157.228V122.869H154.501V111.085Z" fill="white"/>
<path d="M175.543 111.085V122.869H173.303L167.428 115.715V122.869H164.734V111.085H166.992L172.849 118.239V111.085H175.543Z" fill="white"/>
<path d="M90.7275 43.8658L87.1053 60.3837C84.1421 59.0579 80.6011 58.2405 79.6675 58.1344V40.5287C83.0211 40.3131 88.3263 42.1892 90.7212 43.8626C90.7212 43.8626 90.7244 43.8658 90.7275 43.8658Z" fill="white"/>
<path d="M105.603 42.7815V60.3872C104.388 60.5256 102.037 60.9439 99.4672 62.1764C99.2174 62.2955 98.8958 62.54 98.6991 62.8103L103.086 42.8041C103.895 42.7333 104.735 42.7268 105.603 42.7815Z" fill="white"/>
<path d="M123.832 38.7779C123.598 31.3991 120.744 24.741 115.345 18.9873C109.581 12.8441 101.9 9.41375 93.7186 9.3333C86.0715 9.2625 78.4713 12.1587 72.8601 17.2882C63.2895 26.0411 62.4808 39.9203 62.4621 43.9686C62.4589 44.6186 62.334 45.2493 62.0967 45.8382L56.6448 59.2251C56.0859 60.5959 56.2295 62.1502 57.0289 63.3891C57.8282 64.6281 59.1647 65.365 60.6073 65.365H63.7236L66.1997 78.2981C66.7805 81.3359 69.3847 83.5402 72.3917 83.5402H91.8045C92.2947 83.5402 92.6913 83.1315 92.6913 82.6263V71.6336C92.6913 71.624 92.6881 71.6143 92.6881 71.6047C98.9145 65.5388 107.745 66.6522 107.832 66.6618C108.291 66.723 108.716 66.4173 108.813 65.9539L112.885 46.794C112.988 46.308 112.694 45.8286 112.229 45.7127L108.991 44.9082C108.516 44.7891 108.039 45.0916 107.923 45.5808C107.807 46.0699 108.101 46.5623 108.576 46.6813L110.971 47.2767L107.252 64.7793C104.822 64.6216 97.5218 64.6603 91.8045 69.9635C86.0871 64.6603 78.7866 64.6216 76.3573 64.7793L72.6384 47.2767L74.3089 46.8615C74.7836 46.7425 75.0771 46.2501 74.9615 45.761C74.846 45.2718 74.3683 44.9694 73.8936 45.0884L71.38 45.7127C70.9116 45.8286 70.6212 46.3113 70.7243 46.794L74.7961 65.9539C74.896 66.4173 75.3238 66.7262 75.7765 66.6618C75.8671 66.649 84.6757 65.5195 90.9208 71.6047C90.9208 71.6143 90.9177 71.624 90.9177 71.6336V81.7156H72.3917C70.2309 81.7156 68.3574 80.1291 67.939 77.9441L65.3223 64.2741C65.2411 63.8461 64.8758 63.5372 64.4542 63.5372H60.6104C59.7517 63.5372 58.9836 63.1124 58.5089 62.3755C58.0343 61.6386 57.95 60.744 58.2841 59.9266L63.7361 46.5397C64.067 45.7288 64.2357 44.8632 64.2419 43.9718C64.2606 40.1166 65.0225 26.9003 74.0435 18.6494C84.2323 9.3333 101.996 7.37998 114.071 20.2552C125.397 32.3291 122.39 45.3877 119.142 54.1599C117.147 59.5501 116.185 63.0352 116.435 63.9716C116.563 64.4575 117.05 64.7439 117.522 64.612C117.959 64.4897 118.23 64.0488 118.165 63.5983C118.165 63.4213 118.227 61.748 120.797 54.8068C122.196 51.0256 124.035 45.2461 123.832 38.7779Z" fill="white"/>
<path d="M91.8514 83.5402H72.4386C69.4348 83.5402 66.8306 81.3359 66.2467 78.2981L63.7705 65.365H60.6542C59.2116 65.365 57.8752 64.6249 57.0758 63.3891C56.2764 62.1534 56.1328 60.5959 56.6917 59.2251L62.1437 45.8382C62.3841 45.2493 62.5059 44.6186 62.509 43.9686C62.5277 39.9235 63.3365 26.0411 72.907 17.2914C78.5213 12.1587 86.1216 9.2625 93.7686 9.3333C101.95 9.41375 109.631 12.8409 115.392 18.9841C120.791 24.7378 123.645 31.3991 123.879 38.7747C124.085 45.2429 122.246 51.0224 120.844 54.81C118.274 61.748 118.209 63.4245 118.212 63.6015C118.277 64.0521 118.006 64.4897 117.569 64.6152C117.097 64.7471 116.61 64.4607 116.482 63.9748C116.232 63.0352 117.194 59.5501 119.189 54.1632C122.437 45.3909 125.447 32.3323 114.118 20.2584C102.043 7.37998 84.2824 9.3333 74.0873 18.6558C65.0664 26.9068 64.3045 40.1231 64.2857 43.9782C64.2826 44.8696 64.1109 45.732 63.7799 46.5462L58.3279 59.933C57.9938 60.7504 58.0781 61.6418 58.5528 62.3787C59.0274 63.1156 59.7955 63.5404 60.6542 63.5404H64.4981C64.9196 63.5404 65.2849 63.8493 65.3661 64.2773L67.9828 77.9473C68.4012 80.1324 70.2747 81.7188 72.4355 81.7188H90.9615V71.7141C90.9615 71.2089 91.3581 70.8002 91.8483 70.8002C92.3385 70.8002 92.7351 71.2089 92.7351 71.7141V82.6327C92.7351 83.1315 92.3385 83.5402 91.8514 83.5402Z" fill="white"/>
<path d="M87.3235 64.4866C87.1955 64.4866 87.0581 64.477 86.9457 64.3997C83.2705 61.7771 77.8404 61.1785 77.8123 61.1785C77.3346 61.1657 76.9505 60.7602 76.9505 60.2678V40.9792C76.9505 40.5126 77.294 40.1232 77.7436 40.0717C82.8708 39.4989 87.8325 41.5874 90.7677 43.6437C91.1736 43.9269 91.2767 44.4932 91.0019 44.9116C90.7271 45.3299 90.1775 45.4361 89.7716 45.1529C87.3766 43.4796 82.0746 41.6035 78.7178 41.8191V59.4247C79.9481 59.5663 84.7225 60.5993 87.6982 62.7521C88.0979 63.0418 88.329 63.5116 88.1198 63.9685C87.973 64.2936 87.6545 64.4866 87.3235 64.4866Z" fill="white"/>
<path d="M91.8516 72.2032C91.6267 72.2032 91.4019 72.1163 91.2302 71.9393C84.9914 65.5837 75.9142 66.7261 75.8236 66.739C75.3677 66.8001 74.9399 66.4912 74.8431 66.031L70.7714 46.8711C70.6683 46.3852 70.9587 45.9057 71.4271 45.7899L73.9407 45.1656C74.4154 45.0465 74.8931 45.349 75.0086 45.8381C75.1242 46.3273 74.8306 46.8196 74.356 46.9387L72.6855 47.3538L76.4044 64.8565C78.9243 64.6924 86.6744 64.7374 92.4729 70.6424C92.8195 70.9964 92.8227 71.5756 92.4792 71.9328C92.3074 72.1131 92.0795 72.2032 91.8516 72.2032Z" fill="white"/>
<path d="M98.674 40.7852L98.2025 42.9348C97.5249 43.2437 96.8786 43.6138 96.2697 44.045C96.2228 44.0772 96.176 44.1061 96.126 44.1254L96.6662 41.6733C97.3095 41.3258 97.9777 41.0297 98.674 40.7852Z" fill="white"/>
<path d="M106.749 40.9755V60.2609C106.749 60.7565 106.368 61.1619 105.887 61.1748C105.859 61.1748 102.896 61.281 99.5891 62.8643C99.4674 62.9222 99.3424 62.9511 99.2175 62.9511C98.8834 62.9511 98.5618 62.7548 98.4119 62.4234C98.2059 61.9664 98.3995 61.4226 98.8429 61.2102C101.413 59.9777 103.764 59.5594 104.979 59.421V41.8154C104.111 41.7607 103.271 41.7671 102.462 41.8379C101.812 41.8958 101.185 41.9924 100.579 42.1372L101.007 40.1903C101.609 40.0841 102.231 40.0133 102.868 39.9811C103.858 39.9232 104.888 39.9521 105.956 40.068C106.409 40.1163 106.749 40.5089 106.749 40.9755Z" fill="white"/>
<path d="M91.8511 72.2027C91.6232 72.2027 91.3953 72.1126 91.2204 71.9324C90.8769 71.5752 90.88 70.9959 91.2266 70.642C97.0252 64.737 104.775 64.6919 107.295 64.856L111.014 47.3534L108.619 46.758C108.144 46.639 107.851 46.1466 107.967 45.6575C108.082 45.1683 108.56 44.8658 109.034 44.9849L112.272 45.7894C112.741 45.9053 113.031 46.388 112.928 46.8707L108.856 66.0306C108.757 66.494 108.329 66.8029 107.876 66.7385C107.785 66.7257 98.7082 65.5833 92.4694 71.9388C92.3008 72.1158 92.076 72.2027 91.8511 72.2027Z" fill="white"/>
<path d="M90.2308 60.7312L90.3713 60.0941C90.7898 60.4062 91.2925 60.6894 91.8358 60.8149C92.0325 60.8599 92.2355 60.8857 92.4416 60.8857C92.4447 60.8857 92.4509 60.8857 92.4541 60.8857L91.8889 63.4601C91.4205 62.4979 90.8678 61.5872 90.2308 60.7312ZM93.6157 63.8591L94.2183 61.1045C94.5306 61.3266 94.899 61.5164 95.3174 61.6162C95.3643 61.6258 95.4142 61.6387 95.4642 61.6451C95.6984 61.687 95.9794 61.7031 96.2979 61.6548L96.1855 62.1664C95.28 62.6491 94.4213 63.2155 93.6157 63.8591ZM104.769 27.1611C104.295 27.0517 103.82 27.3606 103.711 27.853L101.007 40.1908L100.579 42.1377L96.7725 59.4987C96.4134 59.7851 96.0856 59.901 95.7702 59.8463C95.3206 59.769 94.9115 59.3668 94.6679 59.0579L98.2026 42.9357L98.6741 40.7861L101.641 27.2673C101.747 26.775 101.447 26.2858 100.972 26.1764C100.495 26.0638 100.02 26.3727 99.9138 26.8651L96.6664 41.6743L96.1262 44.1264L92.9037 58.823C92.7101 59.0225 92.5509 59.0579 92.426 59.0579C91.9108 59.0643 91.2363 58.5205 90.8085 58.086L97.7436 26.4596C97.8498 25.9705 97.55 25.4813 97.0754 25.3687C96.5977 25.2593 96.123 25.5682 96.0169 26.0574L88.4104 60.7441C88.4073 60.7634 88.4073 60.7795 88.4042 60.7988C88.3979 60.8278 88.3948 60.8567 88.3948 60.8889C88.3917 60.9179 88.3917 60.9468 88.3917 60.979C88.3948 61.008 88.3948 61.0369 88.3979 61.0659C88.4041 61.0949 88.4073 61.1238 88.4135 61.1528C88.4229 61.1817 88.4291 61.2107 88.4385 61.2397C88.4479 61.2654 88.4572 61.2912 88.4697 61.3169C88.4822 61.3459 88.4947 61.3716 88.5103 61.4006C88.5228 61.4263 88.5415 61.4488 88.5572 61.4746C88.5665 61.4907 88.5759 61.5068 88.5853 61.5196C89.8062 63.0739 90.7117 64.8438 91.28 66.7811C91.2894 66.8197 91.305 66.8615 91.3206 66.8969C91.3237 66.9001 91.3268 66.9066 91.3268 66.9098C91.3487 66.9548 91.3737 66.9967 91.4018 67.0385C91.408 67.0481 91.4174 67.0578 91.4236 67.0707C91.4549 67.1125 91.4923 67.1543 91.5298 67.1897V67.193C91.5454 67.2026 91.5579 67.2155 91.5704 67.2251C91.586 67.238 91.6016 67.2541 91.6204 67.2638C91.6485 67.2831 91.6766 67.3024 91.7047 67.3185C91.7109 67.3217 91.714 67.3217 91.7172 67.3249C91.7859 67.3635 91.8577 67.3893 91.9295 67.4053C91.9326 67.4053 91.9326 67.4053 91.9326 67.4053C92.0044 67.4247 92.0825 67.4311 92.1574 67.4279H92.173C92.2074 67.4246 92.2386 67.4214 92.2698 67.415C92.2979 67.4118 92.3229 67.4053 92.3479 67.3989C92.3604 67.3957 92.3698 67.3925 92.3823 67.3893C92.4322 67.3732 92.4822 67.3506 92.529 67.3281C92.5415 67.3217 92.5509 67.3152 92.5634 67.3088C92.604 67.2831 92.6477 67.2573 92.6851 67.2219C92.6883 67.2219 92.6914 67.2187 92.6914 67.2187C92.7226 67.1897 92.7538 67.1608 92.7819 67.1286C94.0872 65.6483 95.6234 64.4609 97.3471 63.6049C97.3596 63.5985 97.3721 63.5856 97.3845 63.5791C97.4126 63.5631 97.4408 63.547 97.4657 63.5277C97.4876 63.5116 97.5094 63.4955 97.5313 63.4762C97.5532 63.4569 97.575 63.4376 97.5938 63.415C97.6156 63.3925 97.6344 63.3732 97.6531 63.3475C97.6687 63.3249 97.6874 63.3024 97.703 63.2767C97.7187 63.2509 97.7311 63.2252 97.7436 63.1994C97.7561 63.1737 97.7686 63.1479 97.7811 63.1222C97.7905 63.09 97.7998 63.0611 97.8092 63.0289C97.8155 63.0128 97.8217 62.9999 97.8248 62.9838L102.462 41.8384L102.868 39.9816L105.441 28.252C105.547 27.7629 105.247 27.2738 104.769 27.1611Z" fill="white"/>
</svg>
