<svg width="336" height="540" viewBox="0 0 336 540" fill="none" xmlns="http://www.w3.org/2000/svg">
<path d="M335.341 278.89C335.341 370.137 260.428 444.121 168 444.121C75.5724 444.121 0.659341 370.137 0.659341 278.89C0.659341 187.644 75.5724 113.659 168 113.659C260.428 113.659 335.341 187.644 335.341 278.89Z" fill="white" stroke="#EFECEB" stroke-width="1.31868"/>
<path d="M308.545 279.222C308.545 356.144 245.392 418.514 167.474 418.514C89.5563 418.514 26.4035 356.144 26.4035 279.222C26.4035 202.3 89.5563 139.93 167.474 139.93C245.392 139.93 308.545 202.3 308.545 279.222Z" fill="white" stroke="#EFECEB" stroke-width="1.11167"/>
<g filter="url(#filter0_d_738_71601)">
<g clip-path="url(#clip0_738_71601)">
<rect x="71" y="50" width="200.893" height="435" rx="21.4286" fill="white"/>
<circle cx="98.3203" cy="85.3569" r="11.25" fill="white"/>
<rect x="65.6406" y="445.357" width="206.25" height="47.6786" fill="white"/>
<path d="M172.364 229.928L169.803 241.262C167.707 240.352 165.203 239.791 164.543 239.718V227.638C166.914 227.49 170.666 228.777 172.359 229.926C172.359 229.926 172.362 229.928 172.364 229.928Z" fill="#29ABE2"/>
<path d="M182.886 229.184V241.264C182.027 241.359 180.364 241.646 178.547 242.492C178.37 242.573 178.143 242.741 178.004 242.927L181.106 229.199C181.678 229.151 182.272 229.146 182.886 229.184Z" fill="#29ABE2"/>
<path d="M124.902 263.532L124.409 264.578C123.645 264.115 122.881 263.925 122.347 263.925C121.654 263.925 121.201 264.188 121.201 264.66C121.201 266.199 125.003 265.373 124.994 267.908C124.994 269.165 123.888 269.94 122.338 269.94C121.232 269.94 120.185 269.487 119.461 268.822L119.973 267.796C120.697 268.46 121.603 268.822 122.358 268.822C123.184 268.822 123.676 268.511 123.676 267.968C123.676 266.398 119.874 267.274 119.874 264.768C119.874 263.561 120.909 262.808 122.44 262.808C123.352 262.808 124.248 263.099 124.902 263.532Z" fill="#0054B4"/>
<path d="M130.383 263.925V265.826H133.823V266.892H130.383V268.833H134.347V269.9H129.195V262.858H134.225V263.925H130.383Z" fill="#0054B4"/>
<path d="M144.4 263.914L143.707 264.779C143.195 264.225 142.459 263.885 141.746 263.885C140.337 263.885 139.231 264.971 139.231 266.36C139.231 267.749 140.337 268.844 141.746 268.844C142.451 268.844 143.175 268.522 143.707 268.009L144.411 268.793C143.698 269.498 142.68 269.95 141.684 269.95C139.622 269.95 138.023 268.391 138.023 266.369C138.023 264.366 139.642 262.827 141.724 262.827C142.722 262.827 143.718 263.24 144.4 263.914Z" fill="#0054B4"/>
<path d="M155.162 266.378C155.162 268.389 153.533 269.948 151.431 269.948C149.329 269.948 147.699 268.389 147.699 266.378C147.699 264.355 149.329 262.827 151.431 262.827C153.533 262.827 155.162 264.366 155.162 266.378ZM148.905 266.378C148.905 267.775 150.062 268.882 151.44 268.882C152.817 268.882 153.943 267.775 153.943 266.378C153.943 264.98 152.817 263.894 151.44 263.894C150.053 263.894 148.905 264.98 148.905 266.378Z" fill="#0054B4"/>
<path d="M164.185 269.9L160.434 264.85V269.9H159.246V262.858H160.412L164.183 267.917V262.858H165.349V269.9H164.185Z" fill="#0054B4"/>
<path d="M172.915 262.858C175.029 262.858 176.557 264.338 176.557 266.378C176.557 268.409 175.018 269.897 172.885 269.897H170.027V262.856H172.915V262.858ZM171.215 268.833H172.946C174.313 268.833 175.36 267.817 175.36 266.389C175.36 264.949 174.284 263.925 172.896 263.925H171.215V268.833Z" fill="#0054B4"/>
<path d="M187.001 267.979C187.001 269.195 186.037 269.9 184.184 269.9H180.543V262.858H183.983C185.743 262.858 186.648 263.594 186.648 264.689C186.648 265.393 186.286 265.936 185.712 266.239C186.498 266.488 187.001 267.093 187.001 267.979ZM182.164 264.086V265.747H183.782C184.577 265.747 185.01 265.464 185.01 264.912C185.01 264.36 184.577 264.088 183.782 264.088H182.164V264.086ZM185.361 267.807C185.361 267.213 184.908 266.932 184.063 266.932H182.161V268.672H184.063C184.91 268.672 185.361 268.412 185.361 267.807Z" fill="#29ABE2"/>
<path d="M195.539 269.9L194.181 267.939H194.102H192.684V269.9H191.055V262.858H194.102C195.983 262.858 197.16 263.834 197.16 265.413C197.16 266.469 196.628 267.244 195.711 267.637L197.29 269.9H195.539ZM194.009 264.185H192.682V266.641H194.009C195.005 266.641 195.508 266.177 195.508 265.413C195.508 264.638 195.005 264.185 194.009 264.185Z" fill="#29ABE2"/>
<path d="M205.9 268.389H202.63L202.005 269.897H200.336L203.474 262.856H205.083L208.232 269.897H206.521L205.9 268.389ZM205.388 267.153L204.271 264.457L203.153 267.153H205.388Z" fill="#29ABE2"/>
<path d="M211.781 262.858H213.411V269.9H211.781V262.858Z" fill="#29ABE2"/>
<path d="M224.353 262.858V269.9H223.015L219.504 265.625V269.9H217.895V262.858H219.244L222.743 267.133V262.858H224.353Z" fill="#29ABE2"/>
<path d="M195.776 226.437C195.61 221.374 193.592 216.805 189.774 212.857C185.698 208.642 180.266 206.288 174.481 206.233C169.074 206.185 163.7 208.172 159.732 211.692C152.964 217.697 152.392 227.221 152.379 229.998C152.377 230.444 152.288 230.877 152.121 231.281L148.265 240.467C147.87 241.407 147.972 242.474 148.537 243.324C149.102 244.174 150.047 244.68 151.067 244.68H153.271L155.022 253.554C155.433 255.638 157.274 257.151 159.4 257.151H173.128C173.475 257.151 173.755 256.87 173.755 256.524V248.981C173.755 248.974 173.753 248.968 173.753 248.961C178.156 244.799 184.4 245.563 184.462 245.57C184.786 245.612 185.087 245.402 185.155 245.084L188.034 231.937C188.107 231.604 187.9 231.275 187.571 231.195L185.281 230.643C184.945 230.562 184.607 230.769 184.526 231.105C184.444 231.44 184.652 231.778 184.987 231.86L186.681 232.268L184.051 244.278C182.333 244.17 177.171 244.196 173.128 247.835C169.085 244.196 163.923 244.17 162.205 244.278L159.575 232.268L160.756 231.983C161.092 231.902 161.299 231.564 161.218 231.228C161.136 230.893 160.798 230.685 160.463 230.767L158.685 231.195C158.354 231.275 158.148 231.606 158.221 231.937L161.101 245.084C161.171 245.402 161.474 245.614 161.794 245.57C161.858 245.561 168.087 244.786 172.503 248.961C172.503 248.968 172.501 248.974 172.501 248.981V255.899H159.4C157.872 255.899 156.548 254.81 156.252 253.311L154.401 243.931C154.344 243.638 154.086 243.426 153.788 243.426H151.07C150.462 243.426 149.919 243.134 149.583 242.628C149.248 242.123 149.188 241.509 149.425 240.948L153.28 231.763C153.514 231.206 153.633 230.612 153.637 230.001C153.651 227.355 154.189 218.287 160.569 212.626C167.773 206.233 180.335 204.893 188.873 213.727C196.882 222.012 194.756 230.972 192.459 236.991C191.048 240.69 190.368 243.081 190.545 243.724C190.635 244.057 190.98 244.254 191.313 244.163C191.622 244.079 191.815 243.777 191.768 243.468C191.768 243.346 191.812 242.198 193.63 237.435C194.619 234.841 195.919 230.875 195.776 226.437Z" fill="#0054B4"/>
<path d="M173.159 257.151H159.432C157.308 257.151 155.466 255.638 155.053 253.554L153.302 244.68H151.099C150.078 244.68 149.133 244.172 148.568 243.324C148.003 242.476 147.901 241.407 148.297 240.467L152.152 231.281C152.322 230.877 152.408 230.444 152.41 229.998C152.423 227.223 152.995 217.697 159.763 211.694C163.733 208.172 169.107 206.185 174.515 206.233C180.3 206.288 185.732 208.64 189.806 212.855C193.623 216.803 195.641 221.374 195.807 226.435C195.953 230.873 194.652 234.838 193.661 237.437C191.844 242.198 191.797 243.348 191.799 243.47C191.846 243.779 191.654 244.079 191.345 244.165C191.011 244.256 190.667 244.059 190.576 243.726C190.399 243.081 191.08 240.69 192.491 236.994C194.787 230.974 196.915 222.014 188.905 213.73C180.366 204.893 167.807 206.233 160.598 212.63C154.219 218.291 153.68 227.36 153.667 230.005C153.664 230.617 153.543 231.208 153.309 231.767L149.454 240.953C149.217 241.513 149.277 242.125 149.613 242.631C149.948 243.136 150.491 243.428 151.099 243.428H153.817C154.115 243.428 154.373 243.64 154.43 243.933L156.281 253.313C156.577 254.812 157.902 255.901 159.429 255.901H172.53V249.036C172.53 248.69 172.81 248.409 173.157 248.409C173.504 248.409 173.784 248.69 173.784 249.036V256.528C173.784 256.87 173.504 257.151 173.159 257.151Z" fill="#0054B4"/>
<path d="M169.956 244.077C169.866 244.077 169.769 244.071 169.689 244.018C167.09 242.218 163.25 241.807 163.231 241.807C162.893 241.798 162.621 241.52 162.621 241.182V227.947C162.621 227.627 162.864 227.36 163.182 227.325C166.808 226.932 170.316 228.365 172.392 229.776C172.679 229.97 172.752 230.359 172.557 230.646C172.363 230.933 171.974 231.006 171.687 230.811C169.994 229.663 166.244 228.376 163.871 228.524V240.604C164.741 240.701 168.117 241.41 170.221 242.887C170.504 243.086 170.667 243.408 170.519 243.722C170.415 243.945 170.19 244.077 169.956 244.077Z" fill="#0054B4"/>
<path d="M173.159 249.372C173 249.372 172.841 249.312 172.72 249.191C168.308 244.83 161.89 245.614 161.826 245.623C161.503 245.665 161.201 245.453 161.132 245.137L158.253 231.99C158.18 231.657 158.385 231.328 158.717 231.248L160.494 230.82C160.83 230.738 161.168 230.946 161.249 231.282C161.331 231.617 161.123 231.955 160.788 232.037L159.606 232.322L162.236 244.331C164.018 244.218 169.499 244.249 173.599 248.301C173.844 248.544 173.846 248.941 173.603 249.187C173.482 249.31 173.321 249.372 173.159 249.372Z" fill="#0054B4"/>
<path d="M177.985 227.815L177.652 229.29C177.173 229.502 176.716 229.756 176.285 230.052C176.252 230.074 176.219 230.094 176.184 230.107L176.566 228.424C177.02 228.186 177.493 227.983 177.985 227.815Z" fill="#0054B4"/>
<path d="M183.696 227.945V241.178C183.696 241.518 183.427 241.796 183.087 241.805C183.067 241.805 180.971 241.878 178.633 242.964C178.547 243.004 178.458 243.024 178.37 243.024C178.134 243.024 177.906 242.889 177.8 242.662C177.655 242.348 177.792 241.975 178.105 241.829C179.922 240.984 181.585 240.697 182.444 240.602V228.522C181.83 228.484 181.236 228.489 180.664 228.537C180.205 228.577 179.761 228.643 179.333 228.742L179.635 227.407C180.062 227.334 180.501 227.285 180.951 227.263C181.651 227.223 182.38 227.243 183.135 227.323C183.455 227.356 183.696 227.625 183.696 227.945Z" fill="#0054B4"/>
<path d="M173.158 249.372C172.997 249.372 172.836 249.31 172.712 249.187C172.469 248.942 172.471 248.544 172.716 248.301C176.817 244.249 182.297 244.219 184.079 244.331L186.709 232.322L185.015 231.913C184.68 231.831 184.472 231.494 184.554 231.158C184.635 230.822 184.973 230.615 185.309 230.697L187.599 231.249C187.93 231.328 188.135 231.659 188.062 231.99L185.183 245.137C185.112 245.455 184.81 245.667 184.49 245.623C184.426 245.614 178.007 244.83 173.595 249.191C173.476 249.313 173.317 249.372 173.158 249.372Z" fill="#0054B4"/>
<path d="M172.015 241.5L172.115 241.063C172.411 241.277 172.766 241.471 173.15 241.557C173.289 241.588 173.433 241.606 173.579 241.606C173.581 241.606 173.585 241.606 173.588 241.606L173.188 243.372C172.857 242.712 172.466 242.087 172.015 241.5ZM174.409 243.646L174.835 241.756C175.056 241.908 175.316 242.039 175.612 242.107C175.645 242.114 175.681 242.123 175.716 242.127C175.882 242.156 176.08 242.167 176.306 242.134L176.226 242.485C175.586 242.816 174.979 243.205 174.409 243.646ZM182.296 218.466C181.96 218.391 181.625 218.603 181.547 218.94L179.635 227.406L179.333 228.742L176.641 240.654C176.387 240.851 176.155 240.93 175.932 240.893C175.614 240.84 175.325 240.564 175.153 240.352L177.653 229.29L177.986 227.815L180.084 218.539C180.159 218.201 179.947 217.865 179.611 217.79C179.273 217.713 178.938 217.925 178.863 218.263L176.566 228.424L176.184 230.106L173.905 240.191C173.769 240.328 173.656 240.352 173.568 240.352C173.203 240.356 172.726 239.983 172.424 239.685L177.328 217.984C177.403 217.649 177.191 217.313 176.855 217.236C176.518 217.161 176.182 217.373 176.107 217.708L170.728 241.509C170.726 241.522 170.726 241.533 170.724 241.546C170.719 241.566 170.717 241.586 170.717 241.608C170.715 241.628 170.715 241.648 170.715 241.67C170.717 241.69 170.717 241.71 170.719 241.73C170.724 241.749 170.726 241.769 170.73 241.789C170.737 241.809 170.741 241.829 170.748 241.849C170.755 241.867 170.761 241.884 170.77 241.902C170.779 241.922 170.788 241.939 170.799 241.959C170.808 241.977 170.821 241.992 170.832 242.01C170.838 242.021 170.845 242.032 170.852 242.041C171.715 243.107 172.355 244.322 172.757 245.651C172.764 245.678 172.775 245.706 172.786 245.731C172.788 245.733 172.79 245.737 172.79 245.739C172.806 245.77 172.824 245.799 172.843 245.828C172.848 245.834 172.854 245.841 172.859 245.85C172.881 245.879 172.907 245.907 172.934 245.932V245.934C172.945 245.94 172.954 245.949 172.963 245.956C172.974 245.965 172.985 245.976 172.998 245.982C173.018 245.996 173.038 246.009 173.058 246.02C173.062 246.022 173.064 246.022 173.066 246.024C173.115 246.051 173.166 246.068 173.217 246.079C173.219 246.079 173.219 246.079 173.219 246.079C173.27 246.093 173.325 246.097 173.378 246.095H173.389C173.413 246.093 173.435 246.091 173.457 246.086C173.477 246.084 173.495 246.079 173.512 246.075C173.521 246.073 173.528 246.071 173.537 246.068C173.572 246.057 173.607 246.042 173.64 246.026C173.649 246.022 173.656 246.018 173.665 246.013C173.693 245.996 173.724 245.978 173.751 245.954C173.753 245.954 173.755 245.951 173.755 245.951C173.777 245.932 173.799 245.912 173.819 245.89C174.742 244.874 175.829 244.059 177.048 243.472C177.056 243.467 177.065 243.459 177.074 243.454C177.094 243.443 177.114 243.432 177.131 243.419C177.147 243.408 177.162 243.397 177.178 243.383C177.193 243.37 177.209 243.357 177.222 243.341C177.237 243.326 177.251 243.313 177.264 243.295C177.275 243.28 177.288 243.264 177.299 243.247C177.31 243.229 177.319 243.211 177.328 243.194C177.337 243.176 177.346 243.158 177.354 243.141C177.361 243.118 177.368 243.099 177.374 243.077C177.379 243.065 177.383 243.057 177.385 243.046L180.664 228.537L180.951 227.263L182.771 219.214C182.846 218.879 182.634 218.543 182.296 218.466Z" fill="#0054B4"/>
<rect x="88.8281" y="420.056" width="174.613" height="30.6338" rx="6.12676" fill="#0054B4"/>
<path d="M140.197 438.873H138.3L138.312 437.473H140.197C140.667 437.473 141.064 437.367 141.387 437.156C141.71 436.94 141.954 436.627 142.117 436.217C142.285 435.806 142.369 435.309 142.369 434.727V434.302C142.369 433.855 142.321 433.462 142.225 433.123C142.133 432.784 141.996 432.499 141.812 432.268C141.629 432.036 141.403 431.863 141.136 431.747C140.869 431.627 140.562 431.568 140.215 431.568H138.264V430.162H140.215C140.797 430.162 141.33 430.261 141.812 430.461C142.299 430.656 142.72 430.937 143.075 431.304C143.43 431.671 143.703 432.11 143.894 432.621C144.09 433.127 144.187 433.692 144.187 434.314V434.727C144.187 435.345 144.09 435.909 143.894 436.42C143.703 436.931 143.43 437.369 143.075 437.736C142.724 438.099 142.303 438.38 141.812 438.58C141.326 438.775 140.787 438.873 140.197 438.873ZM139.317 430.162V438.873H137.522V430.162H139.317ZM145.201 435.702V435.576C145.201 435.102 145.269 434.665 145.404 434.266C145.54 433.863 145.737 433.514 145.997 433.219C146.256 432.924 146.575 432.694 146.954 432.531C147.333 432.363 147.768 432.28 148.258 432.28C148.749 432.28 149.186 432.363 149.568 432.531C149.951 432.694 150.273 432.924 150.532 433.219C150.795 433.514 150.994 433.863 151.13 434.266C151.266 434.665 151.334 435.102 151.334 435.576V435.702C151.334 436.173 151.266 436.609 151.13 437.012C150.994 437.411 150.795 437.76 150.532 438.059C150.273 438.355 149.953 438.584 149.574 438.747C149.196 438.911 148.761 438.993 148.27 438.993C147.78 438.993 147.343 438.911 146.96 438.747C146.581 438.584 146.26 438.355 145.997 438.059C145.737 437.76 145.54 437.411 145.404 437.012C145.269 436.609 145.201 436.173 145.201 435.702ZM146.924 435.576V435.702C146.924 435.973 146.948 436.226 146.996 436.462C147.044 436.697 147.119 436.905 147.223 437.084C147.331 437.26 147.47 437.397 147.642 437.497C147.813 437.597 148.023 437.646 148.27 437.646C148.509 437.646 148.715 437.597 148.886 437.497C149.058 437.397 149.196 437.26 149.299 437.084C149.403 436.905 149.479 436.697 149.527 436.462C149.578 436.226 149.604 435.973 149.604 435.702V435.576C149.604 435.313 149.578 435.066 149.527 434.834C149.479 434.599 149.401 434.392 149.293 434.212C149.19 434.029 149.052 433.885 148.88 433.781C148.709 433.678 148.501 433.626 148.258 433.626C148.015 433.626 147.807 433.678 147.636 433.781C147.468 433.885 147.331 434.029 147.223 434.212C147.119 434.392 147.044 434.599 146.996 434.834C146.948 435.066 146.924 435.313 146.924 435.576ZM154.333 437.198L155.679 432.399H156.774L156.421 434.284L155.075 438.873H154.16L154.333 437.198ZM153.651 432.399L154.614 437.192L154.704 438.873H153.627L151.988 432.399H153.651ZM158.007 437.114L158.946 432.399H160.616L158.976 438.873H157.905L158.007 437.114ZM156.924 432.399L158.264 437.162L158.45 438.873H157.528L156.182 434.29L155.841 432.399H156.924ZM163.262 433.781V438.873H161.539V432.399H163.155L163.262 433.781ZM163.011 435.409H162.544C162.544 434.93 162.606 434.499 162.73 434.116C162.853 433.73 163.027 433.4 163.25 433.129C163.474 432.854 163.739 432.645 164.046 432.501C164.357 432.353 164.704 432.28 165.087 432.28C165.39 432.28 165.668 432.323 165.919 432.411C166.17 432.499 166.385 432.639 166.565 432.83C166.748 433.022 166.888 433.275 166.984 433.59C167.084 433.905 167.133 434.29 167.133 434.745V438.873H165.398V434.739C165.398 434.451 165.358 434.228 165.279 434.069C165.199 433.909 165.081 433.797 164.926 433.734C164.774 433.666 164.587 433.632 164.363 433.632C164.132 433.632 163.93 433.678 163.759 433.769C163.591 433.861 163.452 433.989 163.34 434.152C163.232 434.312 163.151 434.499 163.095 434.715C163.039 434.93 163.011 435.161 163.011 435.409ZM170.354 429.683V438.873H168.625V429.683H170.354ZM171.595 435.702V435.576C171.595 435.102 171.663 434.665 171.799 434.266C171.934 433.863 172.132 433.514 172.391 433.219C172.65 432.924 172.969 432.694 173.348 432.531C173.727 432.363 174.162 432.28 174.653 432.28C175.143 432.28 175.58 432.363 175.963 432.531C176.346 432.694 176.667 432.924 176.926 433.219C177.189 433.514 177.389 433.863 177.524 434.266C177.66 434.665 177.728 435.102 177.728 435.576V435.702C177.728 436.173 177.66 436.609 177.524 437.012C177.389 437.411 177.189 437.76 176.926 438.059C176.667 438.355 176.348 438.584 175.969 438.747C175.59 438.911 175.155 438.993 174.665 438.993C174.174 438.993 173.737 438.911 173.354 438.747C172.975 438.584 172.654 438.355 172.391 438.059C172.132 437.76 171.934 437.411 171.799 437.012C171.663 436.609 171.595 436.173 171.595 435.702ZM173.318 435.576V435.702C173.318 435.973 173.342 436.226 173.39 436.462C173.438 436.697 173.514 436.905 173.617 437.084C173.725 437.26 173.865 437.397 174.036 437.497C174.208 437.597 174.417 437.646 174.665 437.646C174.904 437.646 175.109 437.597 175.281 437.497C175.452 437.397 175.59 437.26 175.694 437.084C175.797 436.905 175.873 436.697 175.921 436.462C175.973 436.226 175.999 435.973 175.999 435.702V435.576C175.999 435.313 175.973 435.066 175.921 434.834C175.873 434.599 175.795 434.392 175.688 434.212C175.584 434.029 175.446 433.885 175.275 433.781C175.103 433.678 174.896 433.626 174.653 433.626C174.409 433.626 174.202 433.678 174.03 433.781C173.863 433.885 173.725 434.029 173.617 434.212C173.514 434.392 173.438 434.599 173.39 434.834C173.342 435.066 173.318 435.313 173.318 435.576ZM182.373 437.413V434.529C182.373 434.322 182.339 434.144 182.271 433.997C182.203 433.845 182.098 433.728 181.954 433.644C181.815 433.56 181.633 433.518 181.41 433.518C181.218 433.518 181.053 433.552 180.913 433.62C180.773 433.684 180.666 433.777 180.59 433.901C180.514 434.021 180.476 434.162 180.476 434.326H178.753C178.753 434.051 178.817 433.789 178.945 433.542C179.072 433.295 179.258 433.077 179.501 432.89C179.744 432.698 180.034 432.549 180.369 432.441C180.708 432.333 181.087 432.28 181.505 432.28C182.008 432.28 182.455 432.363 182.846 432.531C183.237 432.698 183.544 432.95 183.767 433.285C183.994 433.62 184.108 434.039 184.108 434.541V437.311C184.108 437.666 184.13 437.958 184.174 438.185C184.218 438.408 184.282 438.604 184.365 438.771V438.873H182.624C182.541 438.698 182.477 438.478 182.433 438.215C182.393 437.948 182.373 437.68 182.373 437.413ZM182.6 434.93L182.612 435.905H181.649C181.422 435.905 181.224 435.931 181.057 435.983C180.889 436.035 180.752 436.109 180.644 436.205C180.536 436.296 180.456 436.404 180.405 436.528C180.357 436.651 180.333 436.787 180.333 436.935C180.333 437.082 180.367 437.216 180.434 437.335C180.502 437.451 180.6 437.543 180.728 437.611C180.855 437.674 181.005 437.706 181.176 437.706C181.436 437.706 181.661 437.654 181.852 437.551C182.044 437.447 182.191 437.319 182.295 437.168C182.403 437.016 182.459 436.873 182.463 436.737L182.917 437.467C182.854 437.631 182.766 437.8 182.654 437.976C182.546 438.151 182.409 438.317 182.241 438.472C182.074 438.624 181.872 438.749 181.637 438.849C181.402 438.945 181.123 438.993 180.799 438.993C180.389 438.993 180.016 438.911 179.681 438.747C179.349 438.58 179.086 438.351 178.891 438.059C178.699 437.764 178.604 437.429 178.604 437.054C178.604 436.715 178.667 436.414 178.795 436.151C178.923 435.887 179.11 435.666 179.357 435.487C179.609 435.303 179.922 435.165 180.297 435.074C180.672 434.978 181.107 434.93 181.601 434.93H182.6ZM189.352 437.461V429.683H191.087V438.873H189.525L189.352 437.461ZM185.259 435.714V435.588C185.259 435.094 185.315 434.645 185.427 434.242C185.538 433.835 185.702 433.486 185.917 433.195C186.133 432.904 186.398 432.678 186.713 432.519C187.028 432.359 187.387 432.28 187.79 432.28C188.169 432.28 188.5 432.359 188.783 432.519C189.07 432.678 189.314 432.906 189.513 433.201C189.716 433.492 189.88 433.837 190.004 434.236C190.127 434.631 190.217 435.064 190.273 435.534V435.81C190.217 436.26 190.127 436.679 190.004 437.066C189.88 437.453 189.716 437.792 189.513 438.083C189.314 438.37 189.07 438.594 188.783 438.753C188.496 438.913 188.161 438.993 187.778 438.993C187.375 438.993 187.016 438.911 186.701 438.747C186.39 438.584 186.127 438.355 185.911 438.059C185.7 437.764 185.538 437.417 185.427 437.018C185.315 436.619 185.259 436.185 185.259 435.714ZM186.982 435.588V435.714C186.982 435.981 187.002 436.23 187.042 436.462C187.086 436.693 187.156 436.899 187.251 437.078C187.351 437.254 187.479 437.391 187.634 437.491C187.794 437.587 187.987 437.635 188.215 437.635C188.51 437.635 188.753 437.569 188.945 437.437C189.136 437.301 189.282 437.116 189.381 436.881C189.485 436.645 189.545 436.374 189.561 436.067V435.283C189.549 435.032 189.513 434.806 189.453 434.607C189.397 434.404 189.314 434.23 189.202 434.087C189.094 433.943 188.959 433.831 188.795 433.751C188.636 433.672 188.446 433.632 188.227 433.632C188.003 433.632 187.812 433.684 187.652 433.787C187.493 433.887 187.363 434.025 187.263 434.2C187.168 434.376 187.096 434.583 187.048 434.822C187.004 435.058 186.982 435.313 186.982 435.588ZM199.162 437.413V434.529C199.162 434.322 199.128 434.144 199.061 433.997C198.993 433.845 198.887 433.728 198.743 433.644C198.604 433.56 198.422 433.518 198.199 433.518C198.007 433.518 197.842 433.552 197.702 433.62C197.563 433.684 197.455 433.777 197.379 433.901C197.303 434.021 197.266 434.162 197.266 434.326H195.542C195.542 434.051 195.606 433.789 195.734 433.542C195.862 433.295 196.047 433.077 196.29 432.89C196.534 432.698 196.823 432.549 197.158 432.441C197.497 432.333 197.876 432.28 198.295 432.28C198.797 432.28 199.244 432.363 199.635 432.531C200.026 432.698 200.333 432.95 200.556 433.285C200.784 433.62 200.897 434.039 200.897 434.541V437.311C200.897 437.666 200.919 437.958 200.963 438.185C201.007 438.408 201.071 438.604 201.155 438.771V438.873H199.414C199.33 438.698 199.266 438.478 199.222 438.215C199.182 437.948 199.162 437.68 199.162 437.413ZM199.39 434.93L199.402 435.905H198.438C198.211 435.905 198.013 435.931 197.846 435.983C197.678 436.035 197.541 436.109 197.433 436.205C197.325 436.296 197.246 436.404 197.194 436.528C197.146 436.651 197.122 436.787 197.122 436.935C197.122 437.082 197.156 437.216 197.224 437.335C197.291 437.451 197.389 437.543 197.517 437.611C197.644 437.674 197.794 437.706 197.966 437.706C198.225 437.706 198.45 437.654 198.642 437.551C198.833 437.447 198.981 437.319 199.084 437.168C199.192 437.016 199.248 436.873 199.252 436.737L199.707 437.467C199.643 437.631 199.555 437.8 199.443 437.976C199.336 438.151 199.198 438.317 199.031 438.472C198.863 438.624 198.662 438.749 198.426 438.849C198.191 438.945 197.912 438.993 197.589 438.993C197.178 438.993 196.805 438.911 196.47 438.747C196.139 438.58 195.875 438.351 195.68 438.059C195.489 437.764 195.393 437.429 195.393 437.054C195.393 436.715 195.457 436.414 195.584 436.151C195.712 435.887 195.899 435.666 196.147 435.487C196.398 435.303 196.711 435.165 197.086 435.074C197.461 434.978 197.896 434.93 198.39 434.93H199.39ZM204.041 433.644V441.362H202.318V432.399H203.915L204.041 433.644ZM208.139 435.564V435.69C208.139 436.161 208.083 436.597 207.972 437C207.864 437.403 207.704 437.754 207.493 438.053C207.282 438.349 207.018 438.58 206.703 438.747C206.392 438.911 206.033 438.993 205.626 438.993C205.231 438.993 204.888 438.913 204.597 438.753C204.306 438.594 204.061 438.37 203.861 438.083C203.666 437.792 203.508 437.455 203.389 437.072C203.269 436.689 203.177 436.278 203.113 435.84V435.511C203.177 435.04 203.269 434.609 203.389 434.218C203.508 433.823 203.666 433.482 203.861 433.195C204.061 432.904 204.304 432.678 204.591 432.519C204.882 432.359 205.223 432.28 205.614 432.28C206.025 432.28 206.386 432.357 206.697 432.513C207.012 432.669 207.276 432.892 207.487 433.183C207.702 433.474 207.864 433.821 207.972 434.224C208.083 434.627 208.139 435.074 208.139 435.564ZM206.41 435.69V435.564C206.41 435.289 206.386 435.036 206.338 434.804C206.294 434.569 206.223 434.364 206.123 434.188C206.027 434.013 205.899 433.877 205.74 433.781C205.584 433.682 205.395 433.632 205.171 433.632C204.936 433.632 204.735 433.67 204.567 433.745C204.404 433.821 204.27 433.931 204.166 434.075C204.063 434.218 203.985 434.39 203.933 434.589C203.881 434.789 203.849 435.014 203.837 435.265V436.097C203.857 436.392 203.913 436.657 204.005 436.893C204.097 437.124 204.238 437.307 204.43 437.443C204.621 437.579 204.872 437.646 205.183 437.646C205.411 437.646 205.602 437.597 205.758 437.497C205.913 437.393 206.039 437.252 206.135 437.072C206.234 436.893 206.304 436.685 206.344 436.45C206.388 436.215 206.41 435.961 206.41 435.69ZM211.025 433.644V441.362H209.302V432.399H210.9L211.025 433.644ZM215.124 435.564V435.69C215.124 436.161 215.068 436.597 214.956 437C214.848 437.403 214.689 437.754 214.477 438.053C214.266 438.349 214.003 438.58 213.688 438.747C213.377 438.911 213.018 438.993 212.611 438.993C212.216 438.993 211.873 438.913 211.582 438.753C211.29 438.594 211.045 438.37 210.846 438.083C210.65 437.792 210.493 437.455 210.373 437.072C210.253 436.689 210.162 436.278 210.098 435.84V435.511C210.162 435.04 210.253 434.609 210.373 434.218C210.493 433.823 210.65 433.482 210.846 433.195C211.045 432.904 211.288 432.678 211.576 432.519C211.867 432.359 212.208 432.28 212.599 432.28C213.01 432.28 213.371 432.357 213.682 432.513C213.997 432.669 214.26 432.892 214.471 433.183C214.687 433.474 214.848 433.821 214.956 434.224C215.068 434.627 215.124 435.074 215.124 435.564ZM213.394 435.69V435.564C213.394 435.289 213.371 435.036 213.323 434.804C213.279 434.569 213.207 434.364 213.107 434.188C213.012 434.013 212.884 433.877 212.724 433.781C212.569 433.682 212.379 433.632 212.156 433.632C211.921 433.632 211.719 433.67 211.552 433.745C211.388 433.821 211.255 433.931 211.151 434.075C211.047 434.218 210.969 434.39 210.917 434.589C210.866 434.789 210.834 435.014 210.822 435.265V436.097C210.842 436.392 210.898 436.657 210.989 436.893C211.081 437.124 211.223 437.307 211.414 437.443C211.606 437.579 211.857 437.646 212.168 437.646C212.395 437.646 212.587 437.597 212.742 437.497C212.898 437.393 213.024 437.252 213.119 437.072C213.219 436.893 213.289 436.685 213.329 436.45C213.373 436.215 213.394 435.961 213.394 435.69Z" fill="white"/>
</g>
<rect x="64.0829" y="43.0829" width="214.727" height="448.834" rx="28.3457" stroke="#C2C8DA" stroke-width="13.8342"/>
</g>
<defs>
<filter id="filter0_d_738_71601" x="18.5672" y="0.0181253" width="305.758" height="539.865" filterUnits="userSpaceOnUse" color-interpolation-filters="sRGB">
<feFlood flood-opacity="0" result="BackgroundImageFix"/>
<feColorMatrix in="SourceAlpha" type="matrix" values="0 0 0 0 0 0 0 0 0 0 0 0 0 0 0 0 0 0 127 0" result="hardAlpha"/>
<feOffset dy="2.4507"/>
<feGaussianBlur stdDeviation="19.2993"/>
<feComposite in2="hardAlpha" operator="out"/>
<feColorMatrix type="matrix" values="0 0 0 0 0 0 0 0 0 0 0 0 0 0 0 0 0 0 0.25 0"/>
<feBlend mode="normal" in2="BackgroundImageFix" result="effect1_dropShadow_738_71601"/>
<feBlend mode="normal" in="SourceGraphic" in2="effect1_dropShadow_738_71601" result="shape"/>
</filter>
<clipPath id="clip0_738_71601">
<rect x="71" y="50" width="200.893" height="435" rx="21.4286" fill="white"/>
</clipPath>
</defs>
</svg>
