<svg width="682" height="882" viewBox="0 0 682 882" fill="none" xmlns="http://www.w3.org/2000/svg">
<path d="M680.75 436.5C680.75 609.488 538.727 749.75 363.5 749.75C188.273 749.75 46.25 609.488 46.25 436.5C46.25 263.512 188.273 123.25 363.5 123.25C538.727 123.25 680.75 263.512 680.75 436.5Z" fill="white" stroke="#EFECEB" stroke-width="2.5"/>
<path d="M629.946 437.128C629.946 582.96 510.219 701.202 362.5 701.202C214.781 701.202 95.0538 582.96 95.0538 437.128C95.0538 291.296 214.781 173.054 362.5 173.054C510.219 173.054 629.946 291.296 629.946 437.128Z" fill="white" stroke="#EFECEB" stroke-width="2.10754"/>
<path d="M575.137 437.237C575.137 556.727 477.036 653.611 356 653.611C234.964 653.611 136.863 556.727 136.863 437.237C136.863 317.747 234.964 220.863 356 220.863C477.036 220.863 575.137 317.747 575.137 437.237Z" fill="white" stroke="#EFECEB" stroke-width="1.72684"/>
<circle cx="635" cy="147" r="25" fill="#79BCCF" fill-opacity="0.4"/>
<ellipse cx="45" cy="156" rx="11" ry="12" fill="#ECE8E7"/>
<ellipse cx="45" cy="156" rx="11" ry="12" fill="#90DAFD"/>
<circle cx="17" cy="775" r="17" fill="#79BCCF" fill-opacity="0.4"/>
<g filter="url(#filter0_d_704_71537)">
<g clip-path="url(#clip0_704_71537)">
<rect x="200.902" y="82" width="327.894" height="710" rx="34.9754" fill="white"/>
<circle cx="245.495" cy="139.709" r="18.3621" fill="white"/>
<rect x="192.156" y="727.295" width="336.638" height="77.8202" fill="white"/>
<path d="M366.351 375.675L362.17 394.174C358.75 392.689 354.664 391.774 353.586 391.655V371.938C357.457 371.697 363.58 373.798 366.344 375.672C366.344 375.672 366.347 375.675 366.351 375.675Z" fill="#29ABE2"/>
<path d="M383.519 374.461V394.178C382.117 394.333 379.403 394.801 376.437 396.182C376.149 396.315 375.778 396.589 375.551 396.892L380.614 374.486C381.548 374.407 382.517 374.399 383.519 374.461Z" fill="#29ABE2"/>
<path d="M288.88 430.523L288.076 432.232C286.829 431.475 285.582 431.165 284.71 431.165C283.579 431.165 282.84 431.594 282.84 432.365C282.84 434.877 289.046 433.529 289.031 437.666C289.031 439.717 287.226 440.982 284.696 440.982C282.89 440.982 281.182 440.243 280 439.158L280.836 437.483C282.018 438.567 283.496 439.158 284.728 439.158C286.076 439.158 286.88 438.65 286.88 437.764C286.88 435.201 280.674 436.632 280.674 432.542C280.674 430.57 282.364 429.341 284.862 429.341C286.35 429.341 287.813 429.817 288.88 430.523Z" fill="#0054B4"/>
<path d="M297.826 431.165V434.268H303.441V436.008H297.826V439.176H304.295V440.917H295.887V429.424H304.096V431.165H297.826Z" fill="#0054B4"/>
<path d="M320.705 431.147L319.573 432.559C318.737 431.655 317.537 431.1 316.373 431.1C314.074 431.1 312.268 432.873 312.268 435.14C312.268 437.407 314.074 439.194 316.373 439.194C317.523 439.194 318.705 438.668 319.573 437.832L320.723 439.111C319.559 440.261 317.898 441 316.272 441C312.906 441 310.297 438.455 310.297 435.154C310.297 431.885 312.939 429.374 316.337 429.374C317.966 429.374 319.591 430.047 320.705 431.147Z" fill="#0054B4"/>
<path d="M338.271 435.169C338.271 438.452 335.611 440.996 332.18 440.996C328.75 440.996 326.09 438.452 326.09 435.169C326.09 431.867 328.75 429.374 332.18 429.374C335.611 429.374 338.271 431.885 338.271 435.169ZM328.058 435.169C328.058 437.45 329.946 439.256 332.195 439.256C334.444 439.256 336.282 437.45 336.282 435.169C336.282 432.887 334.444 431.114 332.195 431.114C329.932 431.114 328.058 432.887 328.058 435.169Z" fill="#0054B4"/>
<path d="M352.996 440.917L346.873 432.675V440.917H344.934V429.424H346.836L352.992 437.68V429.424H354.895V440.917H352.996Z" fill="#0054B4"/>
<path d="M367.245 429.424C370.694 429.424 373.188 431.839 373.188 435.169C373.188 438.484 370.676 440.913 367.195 440.913H362.531V429.42H367.245V429.424ZM364.47 439.176H367.296C369.526 439.176 371.235 437.518 371.235 435.187C371.235 432.837 369.48 431.165 367.213 431.165H364.47V439.176Z" fill="#0054B4"/>
<path d="M390.241 437.781C390.241 439.767 388.666 440.917 385.642 440.917H379.699V429.424H385.314C388.186 429.424 389.664 430.624 389.664 432.411C389.664 433.561 389.073 434.448 388.136 434.941C389.419 435.349 390.241 436.336 390.241 437.781ZM382.345 431.428V434.138H384.986C386.284 434.138 386.99 433.676 386.99 432.775C386.99 431.874 386.284 431.431 384.986 431.431H382.345V431.428ZM387.563 437.5C387.563 436.531 386.824 436.073 385.444 436.073H382.341V438.913H385.444C386.828 438.913 387.563 438.488 387.563 437.5Z" fill="#29ABE2"/>
<path d="M404.175 440.917L401.959 437.716H401.829H399.515V440.917H396.855V429.424H401.829C404.899 429.424 406.82 431.017 406.82 433.594C406.82 435.316 405.952 436.581 404.456 437.223L407.033 440.917H404.175ZM401.678 431.59H399.512V435.597H401.678C403.303 435.597 404.125 434.841 404.125 433.594C404.125 432.329 403.303 431.59 401.678 431.59Z" fill="#29ABE2"/>
<path d="M421.082 438.452H415.744L414.725 440.913H412L417.121 429.42H419.748L424.888 440.913H422.095L421.082 438.452ZM420.246 436.434L418.422 432.033L416.599 436.434H420.246Z" fill="#29ABE2"/>
<path d="M430.684 429.424H433.343V440.917H430.684V429.424Z" fill="#29ABE2"/>
<path d="M451.206 429.424V440.917H449.022L443.291 433.94V440.917H440.664V429.424H442.866L448.578 436.401V429.424H451.206Z" fill="#29ABE2"/>
<path d="M404.559 369.977C404.289 361.714 400.995 354.257 394.764 347.813C388.111 340.933 379.245 337.092 369.803 337.001C360.977 336.922 352.205 340.166 345.729 345.91C334.683 355.713 333.749 371.257 333.728 375.791C333.724 376.519 333.58 377.225 333.306 377.884L327.013 392.877C326.368 394.412 326.534 396.153 327.457 397.54C328.379 398.928 329.922 399.753 331.587 399.753H335.183L338.041 414.237C338.712 417.639 341.717 420.108 345.188 420.108H367.594C368.159 420.108 368.617 419.65 368.617 419.085V406.774C368.617 406.763 368.614 406.752 368.614 406.741C375.8 399.948 385.992 401.195 386.093 401.205C386.622 401.274 387.113 400.932 387.224 400.413L391.924 378.955C392.043 378.411 391.704 377.874 391.167 377.744L387.43 376.843C386.882 376.71 386.33 377.048 386.197 377.596C386.064 378.144 386.403 378.695 386.95 378.829L389.715 379.495L385.422 399.097C382.618 398.921 374.192 398.964 367.594 404.903C360.995 398.964 352.569 398.921 349.765 399.097L345.473 379.495L347.401 379.03C347.949 378.897 348.287 378.346 348.154 377.798C348.021 377.25 347.469 376.911 346.921 377.045L344.02 377.744C343.48 377.874 343.145 378.414 343.264 378.955L347.963 400.413C348.078 400.932 348.572 401.278 349.095 401.205C349.199 401.191 359.366 399.926 366.574 406.741C366.574 406.752 366.57 406.763 366.57 406.774V418.065H345.188C342.694 418.065 340.532 416.288 340.049 413.841L337.029 398.531C336.935 398.052 336.513 397.706 336.027 397.706H331.59C330.599 397.706 329.713 397.23 329.165 396.405C328.617 395.58 328.52 394.578 328.905 393.662L335.198 378.67C335.58 377.762 335.775 376.792 335.782 375.794C335.803 371.477 336.683 356.675 347.094 347.435C358.854 337.001 379.357 334.814 393.293 349.233C406.365 362.755 402.894 377.38 399.146 387.204C396.843 393.241 395.733 397.144 396.021 398.193C396.169 398.737 396.731 399.058 397.276 398.91C397.78 398.773 398.094 398.279 398.018 397.775C398.018 397.576 398.09 395.702 401.056 387.929C402.671 383.694 404.793 377.221 404.559 369.977Z" fill="#0054B4"/>
<path d="M367.648 420.108H345.243C341.776 420.108 338.77 417.639 338.096 414.237L335.238 399.753H331.641C329.976 399.753 328.434 398.924 327.511 397.54C326.589 396.156 326.423 394.412 327.068 392.877L333.36 377.884C333.638 377.225 333.778 376.519 333.782 375.791C333.804 371.26 334.737 355.713 345.783 345.914C352.263 340.166 361.035 336.922 369.861 337.001C379.303 337.092 388.169 340.93 394.818 347.81C401.049 354.253 404.343 361.714 404.614 369.974C404.852 377.218 402.729 383.69 401.111 387.932C398.145 395.702 398.069 397.58 398.073 397.778C398.148 398.283 397.835 398.773 397.33 398.913C396.786 399.061 396.224 398.74 396.076 398.196C395.788 397.144 396.898 393.241 399.201 387.208C402.949 377.383 406.423 362.759 393.348 349.237C379.411 334.814 358.912 337.001 347.145 347.442C336.734 356.682 335.854 371.484 335.833 375.801C335.829 376.8 335.631 377.765 335.249 378.677L328.956 393.67C328.571 394.585 328.668 395.583 329.216 396.409C329.764 397.234 330.65 397.71 331.641 397.71H336.078C336.564 397.71 336.986 398.056 337.08 398.535L340.1 413.844C340.583 416.292 342.745 418.068 345.239 418.068H366.621V406.864C366.621 406.298 367.079 405.84 367.645 405.84C368.21 405.84 368.668 406.298 368.668 406.864V419.092C368.668 419.65 368.21 420.108 367.648 420.108Z" fill="#0054B4"/>
<path d="M362.418 398.769C362.27 398.769 362.111 398.758 361.981 398.672C357.74 395.735 351.472 395.064 351.44 395.064C350.889 395.05 350.445 394.596 350.445 394.044V372.442C350.445 371.92 350.842 371.484 351.361 371.426C357.278 370.785 363.005 373.123 366.393 375.426C366.861 375.744 366.98 376.378 366.663 376.846C366.346 377.315 365.712 377.434 365.243 377.117C362.479 375.243 356.359 373.141 352.485 373.383V393.1C353.905 393.259 359.415 394.415 362.85 396.827C363.311 397.151 363.578 397.677 363.337 398.189C363.167 398.553 362.8 398.769 362.418 398.769Z" fill="#0054B4"/>
<path d="M367.647 407.411C367.388 407.411 367.128 407.314 366.93 407.116C359.729 399.998 349.253 401.277 349.148 401.292C348.622 401.36 348.128 401.014 348.016 400.499L343.317 379.041C343.198 378.497 343.533 377.96 344.074 377.83L346.975 377.131C347.523 376.998 348.074 377.337 348.207 377.884C348.341 378.432 348.002 378.984 347.454 379.117L345.526 379.582L349.818 399.184C352.727 399 361.672 399.05 368.364 405.663C368.764 406.06 368.768 406.709 368.371 407.109C368.173 407.31 367.91 407.411 367.647 407.411Z" fill="#0054B4"/>
<path d="M375.522 372.227L374.978 374.634C374.196 374.98 373.45 375.394 372.747 375.877C372.693 375.913 372.639 375.946 372.582 375.967L373.205 373.221C373.947 372.832 374.719 372.5 375.522 372.227Z" fill="#0054B4"/>
<path d="M384.843 372.439V394.037C384.843 394.592 384.403 395.046 383.848 395.061C383.816 395.061 380.395 395.18 376.579 396.953C376.438 397.018 376.294 397.05 376.15 397.05C375.764 397.05 375.393 396.83 375.22 396.459C374.982 395.947 375.206 395.338 375.718 395.101C378.684 393.72 381.397 393.252 382.799 393.097V373.38C381.797 373.318 380.828 373.326 379.894 373.405C379.145 373.47 378.42 373.578 377.721 373.74L378.215 371.56C378.911 371.441 379.628 371.361 380.363 371.325C381.505 371.261 382.695 371.293 383.927 371.423C384.45 371.477 384.843 371.916 384.843 372.439Z" fill="#0054B4"/>
<path d="M367.648 407.411C367.385 407.411 367.122 407.311 366.92 407.109C366.524 406.709 366.527 406.06 366.927 405.664C373.62 399.05 382.565 399 385.473 399.184L389.765 379.582L387.001 378.915C386.453 378.782 386.115 378.23 386.248 377.683C386.381 377.135 386.933 376.796 387.481 376.929L391.218 377.83C391.758 377.96 392.094 378.501 391.975 379.041L387.275 400.499C387.16 401.018 386.666 401.364 386.143 401.292C386.039 401.278 375.562 399.998 368.362 407.116C368.167 407.314 367.908 407.411 367.648 407.411Z" fill="#0054B4"/>
<path d="M365.779 394.563L365.941 393.85C366.424 394.199 367.004 394.516 367.631 394.657C367.858 394.707 368.093 394.736 368.331 394.736C368.334 394.736 368.341 394.736 368.345 394.736L367.693 397.619C367.152 396.542 366.514 395.522 365.779 394.563ZM369.686 398.066L370.381 394.981C370.742 395.23 371.167 395.443 371.65 395.554C371.704 395.565 371.761 395.58 371.819 395.587C372.089 395.634 372.414 395.652 372.781 395.598L372.652 396.171C371.607 396.711 370.615 397.346 369.686 398.066ZM382.559 356.967C382.011 356.845 381.463 357.191 381.337 357.742L378.216 371.559L377.722 373.74L373.329 393.183C372.915 393.504 372.536 393.634 372.172 393.572C371.653 393.486 371.181 393.035 370.9 392.689L374.98 374.634L375.524 372.226L378.948 357.086C379.07 356.535 378.724 355.987 378.176 355.864C377.625 355.738 377.077 356.084 376.955 356.636L373.207 373.221L372.583 375.967L368.864 392.426C368.64 392.65 368.457 392.689 368.313 392.689C367.718 392.696 366.939 392.087 366.446 391.601L374.45 356.181C374.573 355.634 374.227 355.086 373.679 354.96C373.127 354.837 372.58 355.183 372.457 355.731L363.678 394.578C363.674 394.599 363.674 394.617 363.671 394.639C363.663 394.671 363.66 394.704 363.66 394.74C363.656 394.772 363.656 394.805 363.656 394.841C363.66 394.873 363.66 394.906 363.663 394.938C363.671 394.971 363.674 395.003 363.681 395.035C363.692 395.068 363.699 395.1 363.71 395.133C363.721 395.162 363.732 395.19 363.746 395.219C363.761 395.252 363.775 395.281 363.793 395.313C363.808 395.342 363.829 395.367 363.847 395.396C363.858 395.414 363.869 395.432 363.88 395.446C365.289 397.187 366.334 399.169 366.99 401.339C367.001 401.382 367.019 401.429 367.037 401.468C367.04 401.472 367.044 401.479 367.044 401.483C367.069 401.533 367.098 401.58 367.13 401.627C367.138 401.638 367.148 401.649 367.156 401.663C367.192 401.71 367.235 401.757 367.278 401.796V401.8C367.296 401.811 367.311 401.825 367.325 401.836C367.343 401.85 367.361 401.868 367.383 401.879C367.415 401.901 367.448 401.923 367.48 401.941C367.487 401.944 367.491 401.944 367.494 401.948C367.574 401.991 367.657 402.02 367.74 402.038C367.743 402.038 367.743 402.038 367.743 402.038C367.826 402.06 367.916 402.067 368.003 402.063H368.021C368.06 402.059 368.096 402.056 368.132 402.049C368.165 402.045 368.194 402.038 368.222 402.031C368.237 402.027 368.248 402.023 368.262 402.02C368.32 402.002 368.377 401.977 368.431 401.951C368.446 401.944 368.457 401.937 368.471 401.93C368.518 401.901 368.568 401.872 368.612 401.832C368.615 401.832 368.619 401.829 368.619 401.829C368.655 401.796 368.691 401.764 368.723 401.728C370.23 400.07 372.003 398.74 373.992 397.782C374.007 397.774 374.021 397.76 374.036 397.753C374.068 397.735 374.1 397.717 374.129 397.695C374.155 397.677 374.18 397.659 374.205 397.637C374.23 397.616 374.255 397.594 374.277 397.569C374.302 397.544 374.324 397.522 374.346 397.493C374.364 397.468 374.385 397.443 374.403 397.414C374.421 397.385 374.436 397.356 374.45 397.328C374.464 397.299 374.479 397.27 374.493 397.241C374.504 397.205 374.515 397.173 374.526 397.137C374.533 397.119 374.54 397.104 374.544 397.086L379.896 373.405L380.364 371.325L383.334 358.189C383.456 357.641 383.11 357.093 382.559 356.967Z" fill="#0054B4"/>
<rect x="230" y="686" width="285" height="50" rx="10" fill="#0054B4"/>
<path d="M313.843 718H310.747L310.767 715.715H313.843C314.611 715.715 315.259 715.542 315.786 715.197C316.314 714.846 316.711 714.335 316.978 713.664C317.251 712.993 317.388 712.183 317.388 711.232V710.539C317.388 709.81 317.31 709.169 317.154 708.615C317.004 708.062 316.779 707.596 316.48 707.219C316.18 706.841 315.812 706.558 315.376 706.369C314.94 706.174 314.439 706.076 313.872 706.076H310.689V703.781H313.872C314.823 703.781 315.692 703.944 316.48 704.27C317.274 704.589 317.961 705.048 318.54 705.646C319.12 706.245 319.566 706.962 319.878 707.795C320.197 708.622 320.357 709.543 320.357 710.559V711.232C320.357 712.242 320.197 713.163 319.878 713.996C319.566 714.829 319.12 715.546 318.54 716.145C317.967 716.737 317.28 717.196 316.48 717.521C315.685 717.84 314.807 718 313.843 718ZM312.407 703.781V718H309.478V703.781H312.407ZM322.011 712.824V712.619C322.011 711.844 322.121 711.132 322.343 710.48C322.564 709.823 322.886 709.253 323.309 708.771C323.733 708.29 324.253 707.915 324.872 707.648C325.49 707.375 326.2 707.238 327.001 707.238C327.802 707.238 328.514 707.375 329.139 707.648C329.764 707.915 330.289 708.29 330.712 708.771C331.141 709.253 331.467 709.823 331.688 710.48C331.91 711.132 332.02 711.844 332.02 712.619V712.824C332.02 713.592 331.91 714.305 331.688 714.963C331.467 715.614 331.141 716.184 330.712 716.672C330.289 717.154 329.768 717.528 329.149 717.795C328.531 718.062 327.821 718.195 327.02 718.195C326.22 718.195 325.507 718.062 324.882 717.795C324.263 717.528 323.739 717.154 323.309 716.672C322.886 716.184 322.564 715.614 322.343 714.963C322.121 714.305 322.011 713.592 322.011 712.824ZM324.823 712.619V712.824C324.823 713.267 324.862 713.68 324.94 714.064C325.018 714.449 325.142 714.787 325.311 715.08C325.487 715.367 325.715 715.591 325.995 715.754C326.275 715.917 326.617 715.998 327.02 715.998C327.411 715.998 327.746 715.917 328.026 715.754C328.306 715.591 328.531 715.367 328.7 715.08C328.869 714.787 328.993 714.449 329.071 714.064C329.156 713.68 329.198 713.267 329.198 712.824V712.619C329.198 712.189 329.156 711.786 329.071 711.408C328.993 711.024 328.866 710.686 328.69 710.393C328.521 710.093 328.296 709.859 328.016 709.689C327.736 709.52 327.398 709.436 327.001 709.436C326.604 709.436 326.265 709.52 325.985 709.689C325.712 709.859 325.487 710.093 325.311 710.393C325.142 710.686 325.018 711.024 324.94 711.408C324.862 711.786 324.823 712.189 324.823 712.619ZM336.916 715.266L339.114 707.434H340.901L340.325 710.51L338.127 718H336.633L336.916 715.266ZM335.803 707.434L337.375 715.256L337.522 718H335.764L333.088 707.434H335.803ZM342.913 715.129L344.446 707.434H347.17L344.495 718H342.746L342.913 715.129ZM341.145 707.434L343.332 715.207L343.635 718H342.131L339.934 710.52L339.377 707.434H341.145ZM351.49 709.689V718H348.678V707.434H351.314L351.49 709.689ZM351.08 712.346H350.318C350.318 711.564 350.419 710.861 350.621 710.236C350.823 709.605 351.106 709.068 351.471 708.625C351.835 708.176 352.268 707.834 352.77 707.6C353.277 707.359 353.844 707.238 354.469 707.238C354.964 707.238 355.416 707.31 355.826 707.453C356.236 707.596 356.588 707.824 356.881 708.137C357.18 708.449 357.408 708.863 357.564 709.377C357.727 709.891 357.809 710.52 357.809 711.262V718H354.977V711.252C354.977 710.783 354.911 710.419 354.781 710.158C354.651 709.898 354.459 709.715 354.205 709.611C353.958 709.501 353.652 709.445 353.287 709.445C352.91 709.445 352.581 709.52 352.301 709.67C352.027 709.82 351.799 710.028 351.617 710.295C351.441 710.555 351.308 710.861 351.217 711.213C351.126 711.564 351.08 711.942 351.08 712.346ZM363.066 703V718H360.244V703H363.066ZM365.091 712.824V712.619C365.091 711.844 365.202 711.132 365.423 710.48C365.644 709.823 365.967 709.253 366.39 708.771C366.813 708.29 367.334 707.915 367.952 707.648C368.571 707.375 369.28 707.238 370.081 707.238C370.882 707.238 371.595 707.375 372.22 707.648C372.845 707.915 373.369 708.29 373.792 708.771C374.222 709.253 374.547 709.823 374.769 710.48C374.99 711.132 375.101 711.844 375.101 712.619V712.824C375.101 713.592 374.99 714.305 374.769 714.963C374.547 715.614 374.222 716.184 373.792 716.672C373.369 717.154 372.848 717.528 372.23 717.795C371.611 718.062 370.902 718.195 370.101 718.195C369.3 718.195 368.587 718.062 367.962 717.795C367.344 717.528 366.82 717.154 366.39 716.672C365.967 716.184 365.644 715.614 365.423 714.963C365.202 714.305 365.091 713.592 365.091 712.824ZM367.904 712.619V712.824C367.904 713.267 367.943 713.68 368.021 714.064C368.099 714.449 368.223 714.787 368.392 715.08C368.568 715.367 368.795 715.591 369.075 715.754C369.355 715.917 369.697 715.998 370.101 715.998C370.491 715.998 370.827 715.917 371.107 715.754C371.387 715.591 371.611 715.367 371.78 715.08C371.95 714.787 372.073 714.449 372.152 714.064C372.236 713.68 372.279 713.267 372.279 712.824V712.619C372.279 712.189 372.236 711.786 372.152 711.408C372.073 711.024 371.946 710.686 371.771 710.393C371.601 710.093 371.377 709.859 371.097 709.689C370.817 709.52 370.478 709.436 370.081 709.436C369.684 709.436 369.346 709.52 369.066 709.689C368.792 709.859 368.568 710.093 368.392 710.393C368.223 710.686 368.099 711.024 368.021 711.408C367.943 711.786 367.904 712.189 367.904 712.619ZM382.682 715.617V710.91C382.682 710.572 382.627 710.282 382.516 710.041C382.406 709.794 382.233 709.602 381.999 709.465C381.771 709.328 381.475 709.26 381.11 709.26C380.798 709.26 380.527 709.315 380.3 709.426C380.072 709.53 379.896 709.683 379.772 709.885C379.649 710.08 379.587 710.311 379.587 710.578H376.774C376.774 710.129 376.878 709.702 377.087 709.299C377.295 708.895 377.598 708.54 377.995 708.234C378.392 707.922 378.864 707.678 379.411 707.502C379.964 707.326 380.583 707.238 381.266 707.238C382.087 707.238 382.816 707.375 383.454 707.648C384.092 707.922 384.593 708.332 384.958 708.879C385.329 709.426 385.514 710.109 385.514 710.93V715.451C385.514 716.031 385.55 716.506 385.622 716.877C385.693 717.242 385.798 717.561 385.934 717.834V718H383.093C382.956 717.714 382.852 717.355 382.78 716.926C382.715 716.49 382.682 716.053 382.682 715.617ZM383.054 711.564L383.073 713.156H381.501C381.13 713.156 380.807 713.199 380.534 713.283C380.261 713.368 380.036 713.488 379.86 713.645C379.684 713.794 379.554 713.97 379.47 714.172C379.391 714.374 379.352 714.595 379.352 714.836C379.352 715.077 379.408 715.295 379.518 715.49C379.629 715.679 379.789 715.829 379.997 715.939C380.205 716.044 380.449 716.096 380.729 716.096C381.152 716.096 381.52 716.011 381.833 715.842C382.145 715.673 382.386 715.464 382.555 715.217C382.731 714.969 382.822 714.735 382.829 714.514L383.571 715.705C383.467 715.972 383.324 716.249 383.141 716.535C382.966 716.822 382.741 717.092 382.468 717.346C382.194 717.593 381.865 717.798 381.481 717.961C381.097 718.117 380.641 718.195 380.114 718.195C379.443 718.195 378.835 718.062 378.288 717.795C377.748 717.521 377.318 717.147 376.999 716.672C376.686 716.19 376.53 715.643 376.53 715.031C376.53 714.478 376.634 713.986 376.843 713.557C377.051 713.127 377.357 712.766 377.761 712.473C378.171 712.173 378.682 711.949 379.294 711.799C379.906 711.643 380.615 711.564 381.423 711.564H383.054ZM394.073 715.695V703H396.905V718H394.356L394.073 715.695ZM387.393 712.844V712.639C387.393 711.831 387.484 711.099 387.666 710.441C387.849 709.777 388.116 709.208 388.467 708.732C388.819 708.257 389.252 707.889 389.766 707.629C390.28 707.368 390.866 707.238 391.524 707.238C392.142 707.238 392.683 707.368 393.145 707.629C393.614 707.889 394.011 708.26 394.336 708.742C394.668 709.217 394.935 709.781 395.137 710.432C395.339 711.076 395.485 711.783 395.577 712.551V713C395.485 713.736 395.339 714.419 395.137 715.051C394.935 715.682 394.668 716.236 394.336 716.711C394.011 717.18 393.614 717.544 393.145 717.805C392.676 718.065 392.129 718.195 391.504 718.195C390.847 718.195 390.261 718.062 389.746 717.795C389.239 717.528 388.809 717.154 388.457 716.672C388.112 716.19 387.849 715.624 387.666 714.973C387.484 714.322 387.393 713.612 387.393 712.844ZM390.205 712.639V712.844C390.205 713.28 390.238 713.687 390.303 714.064C390.375 714.442 390.489 714.777 390.645 715.07C390.808 715.357 391.016 715.581 391.27 715.744C391.53 715.9 391.846 715.979 392.217 715.979C392.699 715.979 393.096 715.871 393.409 715.656C393.721 715.435 393.959 715.132 394.121 714.748C394.291 714.364 394.388 713.921 394.414 713.42V712.141C394.395 711.73 394.336 711.363 394.239 711.037C394.148 710.705 394.011 710.422 393.829 710.188C393.653 709.953 393.431 709.771 393.164 709.641C392.904 709.51 392.595 709.445 392.237 709.445C391.872 709.445 391.56 709.53 391.299 709.699C391.039 709.862 390.827 710.087 390.664 710.373C390.508 710.66 390.391 710.998 390.313 711.389C390.241 711.773 390.205 712.189 390.205 712.639ZM410.086 715.617V710.91C410.086 710.572 410.03 710.282 409.92 710.041C409.809 709.794 409.636 709.602 409.402 709.465C409.174 709.328 408.878 709.26 408.513 709.26C408.201 709.26 407.931 709.315 407.703 709.426C407.475 709.53 407.299 709.683 407.175 709.885C407.052 710.08 406.99 710.311 406.99 710.578H404.177C404.177 710.129 404.282 709.702 404.49 709.299C404.698 708.895 405.001 708.54 405.398 708.234C405.795 707.922 406.267 707.678 406.814 707.502C407.367 707.326 407.986 707.238 408.67 707.238C409.49 707.238 410.219 707.375 410.857 707.648C411.495 707.922 411.996 708.332 412.361 708.879C412.732 709.426 412.918 710.109 412.918 710.93V715.451C412.918 716.031 412.953 716.506 413.025 716.877C413.097 717.242 413.201 717.561 413.338 717.834V718H410.496C410.359 717.714 410.255 717.355 410.183 716.926C410.118 716.49 410.086 716.053 410.086 715.617ZM410.457 711.564L410.476 713.156H408.904C408.533 713.156 408.211 713.199 407.937 713.283C407.664 713.368 407.439 713.488 407.263 713.645C407.088 713.794 406.957 713.97 406.873 714.172C406.795 714.374 406.755 714.595 406.755 714.836C406.755 715.077 406.811 715.295 406.921 715.49C407.032 715.679 407.192 715.829 407.4 715.939C407.608 716.044 407.852 716.096 408.132 716.096C408.556 716.096 408.923 716.011 409.236 715.842C409.548 715.673 409.789 715.464 409.959 715.217C410.134 714.969 410.226 714.735 410.232 714.514L410.974 715.705C410.87 715.972 410.727 716.249 410.545 716.535C410.369 716.822 410.144 717.092 409.871 717.346C409.597 717.593 409.268 717.798 408.884 717.961C408.5 718.117 408.045 718.195 407.517 718.195C406.847 718.195 406.238 718.062 405.691 717.795C405.151 717.521 404.721 717.147 404.402 716.672C404.089 716.19 403.933 715.643 403.933 715.031C403.933 714.478 404.037 713.986 404.246 713.557C404.454 713.127 404.76 712.766 405.164 712.473C405.574 712.173 406.085 711.949 406.697 711.799C407.309 711.643 408.018 711.564 408.826 711.564H410.457ZM418.048 709.465V722.062H415.236V707.434H417.843L418.048 709.465ZM424.738 712.6V712.805C424.738 713.573 424.646 714.286 424.464 714.943C424.288 715.601 424.028 716.174 423.683 716.662C423.338 717.144 422.908 717.521 422.394 717.795C421.886 718.062 421.3 718.195 420.636 718.195C419.991 718.195 419.432 718.065 418.956 717.805C418.481 717.544 418.081 717.18 417.755 716.711C417.436 716.236 417.179 715.686 416.984 715.061C416.788 714.436 416.639 713.765 416.534 713.049V712.512C416.639 711.743 416.788 711.04 416.984 710.402C417.179 709.758 417.436 709.201 417.755 708.732C418.081 708.257 418.478 707.889 418.946 707.629C419.422 707.368 419.978 707.238 420.616 707.238C421.287 707.238 421.876 707.365 422.384 707.619C422.898 707.873 423.328 708.238 423.673 708.713C424.025 709.188 424.288 709.755 424.464 710.412C424.646 711.07 424.738 711.799 424.738 712.6ZM421.915 712.805V712.6C421.915 712.15 421.876 711.737 421.798 711.359C421.726 710.975 421.609 710.64 421.446 710.354C421.29 710.067 421.082 709.846 420.821 709.689C420.568 709.527 420.258 709.445 419.894 709.445C419.51 709.445 419.181 709.507 418.907 709.631C418.64 709.755 418.422 709.934 418.253 710.168C418.084 710.402 417.957 710.682 417.872 711.008C417.788 711.333 417.736 711.701 417.716 712.111V713.469C417.749 713.951 417.84 714.383 417.989 714.768C418.139 715.145 418.37 715.445 418.683 715.666C418.995 715.887 419.405 715.998 419.913 715.998C420.284 715.998 420.597 715.917 420.851 715.754C421.105 715.585 421.31 715.354 421.466 715.061C421.629 714.768 421.743 714.429 421.808 714.045C421.879 713.661 421.915 713.247 421.915 712.805ZM429.448 709.465V722.062H426.636V707.434H429.243L429.448 709.465ZM436.138 712.6V712.805C436.138 713.573 436.046 714.286 435.864 714.943C435.688 715.601 435.428 716.174 435.083 716.662C434.738 717.144 434.308 717.521 433.794 717.795C433.286 718.062 432.7 718.195 432.036 718.195C431.391 718.195 430.832 718.065 430.356 717.805C429.881 717.544 429.481 717.18 429.155 716.711C428.836 716.236 428.579 715.686 428.384 715.061C428.188 714.436 428.039 713.765 427.934 713.049V712.512C428.039 711.743 428.188 711.04 428.384 710.402C428.579 709.758 428.836 709.201 429.155 708.732C429.481 708.257 429.878 707.889 430.346 707.629C430.822 707.368 431.378 707.238 432.016 707.238C432.687 707.238 433.276 707.365 433.784 707.619C434.298 707.873 434.728 708.238 435.073 708.713C435.425 709.188 435.688 709.755 435.864 710.412C436.046 711.07 436.138 711.799 436.138 712.6ZM433.315 712.805V712.6C433.315 712.15 433.276 711.737 433.198 711.359C433.126 710.975 433.009 710.64 432.846 710.354C432.69 710.067 432.482 709.846 432.221 709.689C431.968 709.527 431.658 709.445 431.294 709.445C430.91 709.445 430.581 709.507 430.307 709.631C430.04 709.755 429.822 709.934 429.653 710.168C429.484 710.402 429.357 710.682 429.272 711.008C429.188 711.333 429.136 711.701 429.116 712.111V713.469C429.149 713.951 429.24 714.383 429.389 714.768C429.539 715.145 429.77 715.445 430.083 715.666C430.395 715.887 430.805 715.998 431.313 715.998C431.684 715.998 431.997 715.917 432.251 715.754C432.505 715.585 432.71 715.354 432.866 715.061C433.029 714.768 433.143 714.429 433.208 714.045C433.279 713.661 433.315 713.247 433.315 712.805Z" fill="white"/>
</g>
<rect x="189.612" y="70.71" width="350.474" height="732.58" rx="46.2654" stroke="#C2C8DA" stroke-width="22.58"/>
</g>
<defs>
<filter id="filter0_d_704_71537" x="115.322" y="0.419922" width="499.054" height="881.16" filterUnits="userSpaceOnUse" color-interpolation-filters="sRGB">
<feFlood flood-opacity="0" result="BackgroundImageFix"/>
<feColorMatrix in="SourceAlpha" type="matrix" values="0 0 0 0 0 0 0 0 0 0 0 0 0 0 0 0 0 0 127 0" result="hardAlpha"/>
<feOffset dy="4"/>
<feGaussianBlur stdDeviation="31.5"/>
<feComposite in2="hardAlpha" operator="out"/>
<feColorMatrix type="matrix" values="0 0 0 0 0 0 0 0 0 0 0 0 0 0 0 0 0 0 0.25 0"/>
<feBlend mode="normal" in2="BackgroundImageFix" result="effect1_dropShadow_704_71537"/>
<feBlend mode="normal" in="SourceGraphic" in2="effect1_dropShadow_704_71537" result="shape"/>
</filter>
<clipPath id="clip0_704_71537">
<rect x="200.902" y="82" width="327.894" height="710" rx="34.9754" fill="white"/>
</clipPath>
</defs>
</svg>
