<svg width="32" height="32" viewBox="0 0 32 32" fill="none" xmlns="http://www.w3.org/2000/svg">
<path d="M22.6666 17.5073V22.4366H19.8093V17.8366C19.8093 16.682 19.3959 15.894 18.3613 15.894C17.5719 15.894 17.1013 16.4246 16.8946 16.9393C16.8199 17.1233 16.7999 17.3793 16.7999 17.6353V22.4366H13.9413C13.9413 22.4366 13.9799 14.6473 13.9413 13.8406H16.7999V15.058L16.7813 15.086H16.7999V15.0593C17.1799 14.4726 17.8573 13.638 19.3759 13.638C21.2559 13.638 22.6666 14.8673 22.6666 17.5073ZM10.9506 9.69531C9.97325 9.69531 9.33325 10.338 9.33325 11.1806C9.33325 12.0073 9.95459 12.6673 10.9133 12.6673H10.9319C11.9293 12.6673 12.5493 12.006 12.5493 11.1806C12.5306 10.338 11.9293 9.69531 10.9506 9.69531ZM9.50259 22.4366H12.3613V13.8406H9.50259V22.4366Z" fill="white"/>
<path d="M7.99996 5.33366C7.29272 5.33366 6.61444 5.61461 6.11434 6.11471C5.61424 6.6148 5.33329 7.29308 5.33329 8.00033V24.0003C5.33329 24.7076 5.61424 25.3858 6.11434 25.8859C6.61444 26.386 7.29272 26.667 7.99996 26.667H24C24.7072 26.667 25.3855 26.386 25.8856 25.8859C26.3857 25.3858 26.6666 24.7076 26.6666 24.0003V8.00033C26.6666 7.29308 26.3857 6.6148 25.8856 6.11471C25.3855 5.61461 24.7072 5.33366 24 5.33366H7.99996ZM7.99996 2.66699H24C25.4144 2.66699 26.771 3.2289 27.7712 4.22909C28.7714 5.22928 29.3333 6.58584 29.3333 8.00033V24.0003C29.3333 25.4148 28.7714 26.7714 27.7712 27.7716C26.771 28.7718 25.4144 29.3337 24 29.3337H7.99996C6.58547 29.3337 5.22892 28.7718 4.22872 27.7716C3.22853 26.7714 2.66663 25.4148 2.66663 24.0003V8.00033C2.66663 6.58584 3.22853 5.22928 4.22872 4.22909C5.22892 3.2289 6.58547 2.66699 7.99996 2.66699V2.66699Z" fill="white"/>
</svg>
