<svg width="224" height="45" viewBox="0 0 224 45" fill="none" xmlns="http://www.w3.org/2000/svg">
<path d="M57.1051 17.212L56.281 18.9636C55.0025 18.1876 53.7239 17.8698 52.8297 17.8698C51.6694 17.8698 50.9118 18.3095 50.9118 19.1003C50.9118 21.6759 57.2751 20.2939 57.2603 24.536C57.2603 26.6386 55.409 27.9356 52.8149 27.9356C50.9636 27.9356 49.212 27.1781 48 26.0658L48.8573 24.3475C50.0693 25.4598 51.5844 26.0658 52.8482 26.0658C54.2302 26.0658 55.0542 25.5448 55.0542 24.6358C55.0542 22.0085 48.691 23.4755 48.691 19.2814C48.691 17.2601 50.4241 16 52.9849 16C54.511 16 56.0113 16.4878 57.1051 17.212Z" fill="white"/>
<path d="M66.2761 17.8699V21.0515H72.0333V22.8363H66.2761V26.0844H72.909V27.8692H64.288V16.0851H72.7058V17.8699H66.2761Z" fill="white"/>
<path d="M89.7376 17.8514L88.5773 19.2999C87.72 18.3724 86.4895 17.8034 85.2959 17.8034C82.9383 17.8034 81.087 19.6214 81.087 21.9457C81.087 24.27 82.9383 26.1029 85.2959 26.1029C86.4747 26.1029 87.6867 25.5634 88.5773 24.7061L89.7561 26.0179C88.5625 27.1967 86.859 27.9542 85.1924 27.9542C81.7411 27.9542 79.0657 25.3454 79.0657 21.9605C79.0657 18.6089 81.7743 16.0334 85.259 16.0334C86.9292 16.0334 88.5958 16.7244 89.7376 17.8514Z" fill="white"/>
<path d="M107.748 21.9753C107.748 25.3417 105.021 27.9505 101.503 27.9505C97.9851 27.9505 95.258 25.3417 95.258 21.9753C95.258 18.5905 97.9851 16.0334 101.503 16.0334C105.021 16.0334 107.748 18.6089 107.748 21.9753ZM97.2756 21.9753C97.2756 24.3144 99.2119 26.1657 101.518 26.1657C103.824 26.1657 105.708 24.3144 105.708 21.9753C105.708 19.6362 103.824 17.8182 101.518 17.8182C99.1971 17.8182 97.2756 19.6362 97.2756 21.9753Z" fill="white"/>
<path d="M122.845 27.8692L116.567 19.4182V27.8692H114.578V16.0851H116.53L122.841 24.5509V16.0851H124.792V27.8692H122.845Z" fill="white"/>
<path d="M137.455 16.0849C140.991 16.0849 143.548 18.5607 143.548 21.9752C143.548 25.3748 140.973 27.8654 137.403 27.8654H132.621V16.0812H137.455V16.0849ZM134.609 26.0843H137.506C139.794 26.0843 141.545 24.3844 141.545 21.9936C141.545 19.5843 139.746 17.8697 137.421 17.8697H134.609V26.0843Z" fill="white"/>
<path d="M161.033 24.6543C161.033 26.6904 159.418 27.8692 156.318 27.8692H150.225V16.0851H155.982C158.927 16.0851 160.442 17.3156 160.442 19.1484C160.442 20.3272 159.836 21.2362 158.875 21.7425C160.191 22.1601 161.033 23.1726 161.033 24.6543ZM152.937 18.1396V20.9185H155.646C156.976 20.9185 157.7 20.4455 157.7 19.5217C157.7 18.5978 156.976 18.1433 155.646 18.1433H152.937V18.1396ZM158.288 24.3661C158.288 23.3721 157.53 22.9028 156.115 22.9028H152.933V25.8146H156.115C157.534 25.8146 158.288 25.3786 158.288 24.3661Z" fill="white"/>
<path d="M175.323 27.8692L173.05 24.5878H172.917H170.545V27.8692H167.818V16.0851H172.917C176.065 16.0851 178.035 17.7184 178.035 20.3605C178.035 22.1268 177.144 23.4238 175.611 24.0816L178.253 27.8692H175.323ZM172.762 18.3059H170.541V22.415H172.762C174.428 22.415 175.271 21.639 175.271 20.3605C175.271 19.0634 174.428 18.3059 172.762 18.3059Z" fill="white"/>
<path d="M192.657 25.3415H187.184L186.138 27.8654H183.345L188.596 16.0812H191.289L196.559 27.8654H193.695L192.657 25.3415ZM191.799 23.2722L189.93 18.7603L188.06 23.2722H191.799Z" fill="white"/>
<path d="M202.501 16.0851H205.228V27.8692H202.501V16.0851Z" fill="white"/>
<path d="M223.543 16.0851V27.8692H221.303L215.428 20.7152V27.8692H212.734V16.0851H214.992L220.849 23.2391V16.0851H223.543Z" fill="white"/>
<path d="M20.1152 21.1131L18.2812 29.0634C16.7808 28.4253 14.9879 28.0319 14.5152 27.9807V19.507C16.2132 19.4032 18.8994 20.3062 20.112 21.1116C20.112 21.1116 20.1136 21.1131 20.1152 21.1131Z" fill="white"/>
<path d="M27.6471 20.5911V29.0649C27.0321 29.1315 25.8415 29.3328 24.5404 29.9261C24.4139 29.9834 24.251 30.1011 24.1514 30.2312L26.3728 20.602C26.7823 20.5679 27.2076 20.5648 27.6471 20.5911Z" fill="white"/>
<path d="M36.8771 18.6643C36.7585 15.1128 35.3135 11.9082 32.5799 9.13884C29.6613 6.18208 25.772 4.531 21.6297 4.49228C17.7577 4.4582 13.9095 5.85217 11.0684 8.32105C6.22255 12.5339 5.81307 19.2141 5.80358 21.1626C5.802 21.4755 5.73876 21.779 5.6186 22.0625L2.85813 28.5057C2.57512 29.1655 2.64785 29.9136 3.05259 30.5099C3.45734 31.1063 4.13401 31.4609 4.86445 31.4609H6.44232L7.69607 37.6858C7.99014 39.1479 9.30872 40.2089 10.8312 40.2089H20.6605C20.9087 40.2089 21.1095 40.0122 21.1095 39.769V34.4781C21.1095 34.4735 21.1079 34.4688 21.1079 34.4642C24.2605 31.5446 28.7316 32.0805 28.7759 32.0851C29.0083 32.1146 29.2233 31.9674 29.2724 31.7444L31.334 22.5225C31.3862 22.2886 31.2376 22.0578 31.002 22.0021L29.3625 21.6149C29.1222 21.5576 28.8803 21.7032 28.8218 21.9386C28.7633 22.174 28.9119 22.411 29.1522 22.4683L30.3648 22.7548L28.4818 31.179C27.2518 31.1032 23.5554 31.1217 20.6605 33.6743C17.7656 31.1217 14.0692 31.1032 12.8392 31.179L10.9561 22.7548L11.802 22.555C12.0423 22.4977 12.1909 22.2607 12.1324 22.0253C12.0739 21.7899 11.832 21.6443 11.5917 21.7016L10.319 22.0021C10.0818 22.0578 9.93481 22.2902 9.98698 22.5225L12.0486 31.7444C12.0992 31.9674 12.3158 32.1161 12.5451 32.0851C12.5909 32.0789 17.051 31.5353 20.2131 34.4642C20.2131 34.4688 20.2115 34.4735 20.2115 34.4781V39.3307H10.8312C9.73718 39.3307 8.78856 38.5671 8.5767 37.5154L7.2518 30.9359C7.21069 30.7299 7.02571 30.5812 6.81228 30.5812H4.86603C4.43125 30.5812 4.04231 30.3767 3.802 30.0221C3.56168 29.6674 3.519 29.2368 3.68817 28.8434L6.44864 22.4001C6.61623 22.0098 6.7016 21.5932 6.70476 21.1642C6.71425 19.3086 7.10002 12.9475 11.6676 8.97621C16.8265 4.49228 25.821 3.55212 31.9348 9.74909C37.6692 15.5604 36.1467 21.8456 34.5024 26.0678C33.4921 28.6622 33.0052 30.3396 33.1316 30.7903C33.1965 31.0242 33.4431 31.162 33.6818 31.0985C33.9032 31.0396 34.0407 30.8275 34.0075 30.6106C34.0075 30.5254 34.0392 29.72 35.3403 26.3791C36.0486 24.5592 36.9799 21.7775 36.8771 18.6643Z" fill="white"/>
<path d="M20.6843 40.2089H10.8551C9.3341 40.2089 8.01553 39.1479 7.71988 37.6858L6.46612 31.4609H4.88825C4.15782 31.4609 3.48114 31.1047 3.0764 30.5099C2.67165 29.9152 2.59893 29.1655 2.88193 28.5057L5.64241 22.0625C5.76414 21.779 5.8258 21.4755 5.82739 21.1626C5.83687 19.2157 6.24636 12.5339 11.0922 8.3226C13.9349 5.85217 17.7831 4.4582 21.6551 4.49228C25.7973 4.531 29.6867 6.18053 32.6037 9.13729C35.3373 11.9066 36.7823 15.1128 36.9009 18.6628C37.0052 21.776 36.074 24.5577 35.3641 26.3807C34.063 29.72 34.0298 30.527 34.0313 30.6122C34.0645 30.829 33.927 31.0396 33.7056 31.1001C33.4669 31.1636 33.2203 31.0257 33.1554 30.7918C33.029 30.3396 33.5159 28.6622 34.5262 26.0694C36.1705 21.8472 37.6946 15.5619 31.9586 9.75064C25.8448 3.55212 16.8519 4.49228 11.6898 8.97931C7.12225 12.9506 6.73647 19.3117 6.72699 21.1673C6.72541 21.5963 6.63845 22.0114 6.47086 22.4032L3.71039 28.8465C3.54122 29.2399 3.58391 29.6689 3.82422 30.0236C4.06454 30.3783 4.45347 30.5827 4.88825 30.5827H6.8345C7.04794 30.5827 7.23292 30.7314 7.27402 30.9374L8.59893 37.517C8.81078 38.5686 9.7594 39.3322 10.8535 39.3322H20.2337V34.5168C20.2337 34.2737 20.4345 34.077 20.6827 34.077C20.9309 34.077 21.1317 34.2737 21.1317 34.5168V39.7721C21.1317 40.0122 20.9309 40.2089 20.6843 40.2089Z" fill="white"/>
<path d="M18.3917 31.0382C18.3269 31.0382 18.2573 31.0335 18.2004 30.9963C16.3395 29.734 13.5901 29.4459 13.5759 29.4459C13.334 29.4397 13.1395 29.2446 13.1395 29.0076V19.7238C13.1395 19.4992 13.3134 19.3118 13.5411 19.287C16.1372 19.0113 18.6494 20.0165 20.1356 21.0062C20.3411 21.1425 20.3933 21.4151 20.2542 21.6165C20.115 21.8178 19.8368 21.8689 19.6312 21.7326C18.4186 20.9272 15.734 20.0242 14.0344 20.128V28.6018C14.6573 28.67 17.0747 29.1671 18.5814 30.2033C18.7838 30.3427 18.9008 30.5689 18.7949 30.7888C18.7206 30.9452 18.5593 31.0382 18.3917 31.0382Z" fill="white"/>
<path d="M20.6843 34.7523C20.5705 34.7523 20.4567 34.7105 20.3697 34.6253C17.2108 31.5663 12.6148 32.1161 12.5689 32.1223C12.3381 32.1517 12.1215 32.0031 12.0725 31.7816L10.0108 22.5597C9.95864 22.3258 10.1057 22.095 10.3428 22.0393L11.6156 21.7388C11.8559 21.6815 12.0978 21.8271 12.1563 22.0625C12.2148 22.2979 12.0661 22.5349 11.8258 22.5922L10.98 22.792L12.863 31.2162C14.1389 31.1372 18.063 31.1589 20.999 34.0011C21.1744 34.1715 21.176 34.4502 21.0021 34.6222C20.9152 34.7089 20.7997 34.7523 20.6843 34.7523Z" fill="white"/>
<path d="M24.1388 19.6308L23.9 20.6655C23.5569 20.8142 23.2297 20.9923 22.9214 21.1998C22.8976 21.2153 22.8739 21.2292 22.8486 21.2385L23.1222 20.0583C23.4478 19.891 23.7862 19.7485 24.1388 19.6308Z" fill="white"/>
<path d="M28.2274 19.7222V29.0045C28.2274 29.243 28.0345 29.4382 27.791 29.4444C27.7768 29.4444 26.2764 29.4955 24.6021 30.2575C24.5404 30.2854 24.4772 30.2993 24.414 30.2993C24.2448 30.2993 24.0819 30.2049 24.0061 30.0453C23.9017 29.8254 23.9997 29.5636 24.2242 29.4614C25.5254 28.8682 26.7159 28.6668 27.331 28.6002V20.1265C26.8914 20.1001 26.4661 20.1032 26.0566 20.1373C25.7278 20.1652 25.41 20.2116 25.1033 20.2813L25.3199 19.3443C25.625 19.2932 25.9396 19.2591 26.2622 19.2436C26.7634 19.2157 27.2851 19.2297 27.8258 19.2854C28.0551 19.3087 28.2274 19.4976 28.2274 19.7222Z" fill="white"/>
<path d="M20.6841 34.7522C20.5687 34.7522 20.4533 34.7088 20.3647 34.6221C20.1908 34.4502 20.1924 34.1714 20.3679 34.001C23.3039 31.1588 27.228 31.1372 28.5039 31.2162L30.3869 22.7919L29.1742 22.5054C28.9339 22.4481 28.7853 22.2111 28.8438 21.9757C28.9023 21.7403 29.1442 21.5947 29.3845 21.652L31.024 22.0392C31.2612 22.0949 31.4082 22.3273 31.356 22.5596L29.2944 31.7815C29.2438 32.0045 29.0272 32.1532 28.7979 32.1222C28.7521 32.116 24.156 31.5662 20.9972 34.6252C20.9118 34.7104 20.7979 34.7522 20.6841 34.7522Z" fill="white"/>
<path d="M19.8637 29.2306L19.9349 28.9239C20.1467 29.0742 20.4013 29.2105 20.6764 29.2709C20.776 29.2926 20.8787 29.305 20.9831 29.305C20.9847 29.305 20.9878 29.305 20.9894 29.305L20.7032 30.544C20.4661 30.0809 20.1862 29.6426 19.8637 29.2306ZM21.5776 30.7361L21.8827 29.4103C22.0408 29.5171 22.2274 29.6085 22.4392 29.6565C22.4629 29.6612 22.4882 29.6674 22.5135 29.6705C22.6321 29.6906 22.7744 29.6984 22.9357 29.6751L22.8787 29.9214C22.4202 30.1537 21.9855 30.4263 21.5776 30.7361ZM27.225 13.073C26.9847 13.0203 26.7444 13.169 26.689 13.406L25.3198 19.3443L25.1032 20.2813L23.176 28.6374C22.9942 28.7752 22.8281 28.831 22.6685 28.8047C22.4408 28.7675 22.2337 28.5739 22.1104 28.4252L23.9001 20.6654L24.1388 19.6308L25.6408 13.1241C25.6945 12.8871 25.5428 12.6517 25.3025 12.599C25.0606 12.5448 24.8202 12.6935 24.7665 12.9305L23.1222 20.0583L22.8487 21.2385L21.2171 28.3121C21.1191 28.4082 21.0384 28.4252 20.9752 28.4252C20.7143 28.4283 20.3728 28.1665 20.1562 27.9575L23.6677 12.7353C23.7214 12.4999 23.5696 12.2645 23.3293 12.2102C23.0874 12.1576 22.8471 12.3063 22.7934 12.5417L18.942 29.2368C18.9404 29.2461 18.9404 29.2538 18.9388 29.2631C18.9357 29.2771 18.9341 29.291 18.9341 29.3065C18.9325 29.3204 18.9325 29.3344 18.9325 29.3499C18.9341 29.3638 18.9341 29.3778 18.9357 29.3917C18.9388 29.4056 18.9404 29.4196 18.9436 29.4335C18.9483 29.4474 18.9515 29.4614 18.9562 29.4753C18.961 29.4877 18.9657 29.5001 18.972 29.5125C18.9783 29.5264 18.9847 29.5388 18.9926 29.5528C18.9989 29.5652 19.0084 29.576 19.0163 29.5884C19.021 29.5961 19.0258 29.6039 19.0305 29.6101C19.6487 30.3582 20.1072 31.21 20.3949 32.1425C20.3997 32.161 20.4076 32.1812 20.4155 32.1982C20.4171 32.1998 20.4187 32.2029 20.4187 32.2044C20.4297 32.2261 20.4424 32.2462 20.4566 32.2664C20.4598 32.271 20.4645 32.2757 20.4677 32.2819C20.4835 32.302 20.5025 32.3221 20.5214 32.3392V32.3407C20.5293 32.3454 20.5357 32.3516 20.542 32.3562C20.5499 32.3624 20.5578 32.3701 20.5673 32.3748C20.5815 32.3841 20.5957 32.3934 20.61 32.4011C20.6131 32.4027 20.6147 32.4027 20.6163 32.4042C20.6511 32.4228 20.6874 32.4352 20.7238 32.4429C20.7254 32.4429 20.7254 32.4429 20.7254 32.4429C20.7617 32.4522 20.8013 32.4553 20.8392 32.4538H20.8471C20.8645 32.4522 20.8803 32.4507 20.8961 32.4476C20.9104 32.446 20.923 32.4429 20.9357 32.4398C20.942 32.4383 20.9467 32.4367 20.953 32.4352C20.9783 32.4274 21.0036 32.4166 21.0274 32.4058C21.0337 32.4027 21.0384 32.3996 21.0447 32.3965C21.0653 32.3841 21.0874 32.3717 21.1064 32.3547C21.108 32.3547 21.1096 32.3531 21.1096 32.3531C21.1254 32.3392 21.1412 32.3252 21.1554 32.3097C21.8163 31.5973 22.5942 31.0257 23.4669 30.6137C23.4732 30.6106 23.4795 30.6044 23.4859 30.6013C23.5001 30.5936 23.5143 30.5859 23.527 30.5766C23.538 30.5688 23.5491 30.5611 23.5602 30.5518C23.5712 30.5425 23.5823 30.5332 23.5918 30.5224C23.6029 30.5115 23.6123 30.5022 23.6218 30.4898C23.6297 30.479 23.6392 30.4681 23.6471 30.4558C23.655 30.4434 23.6613 30.431 23.6677 30.4186C23.674 30.4062 23.6803 30.3938 23.6866 30.3814C23.6914 30.3659 23.6961 30.352 23.7009 30.3365C23.704 30.3287 23.7072 30.3226 23.7088 30.3148L26.0566 20.1373L26.2621 19.2436L27.5649 13.598C27.6187 13.3626 27.4669 13.1272 27.225 13.073Z" fill="white"/>
</svg>
