<svg width="36" height="32" viewBox="0 0 36 32" fill="none" xmlns="http://www.w3.org/2000/svg">
<path d="M32.0006 32C32.9289 32 33.8191 31.6313 34.4755 30.9749C35.1319 30.3185 35.5006 29.4283 35.5006 28.5V19.953C35.5006 19.0247 35.1319 18.1345 34.4755 17.4781C33.8191 16.8217 32.9289 16.453 32.0006 16.453H27.1426C27.1426 15.2245 27.2161 13.9925 27.3596 12.764C27.5766 11.462 27.9406 10.3035 28.4446 9.292C28.9521 8.277 29.6031 7.4825 30.4011 6.9015C31.1956 6.2505 32.2071 5.925 33.4391 5.925V0.5C31.4126 0.5 29.6416 0.934 28.1191 1.802C26.6099 2.6612 25.3123 3.84758 24.3216 5.274C23.3273 6.8466 22.5945 8.56994 22.1516 10.377C21.7053 12.3712 21.4869 14.4096 21.5006 16.453V28.5C21.5006 29.4283 21.8694 30.3185 22.5257 30.9749C23.1821 31.6313 24.0723 32 25.0006 32H32.0006ZM11.0006 32C11.9289 32 12.8191 31.6313 13.4755 30.9749C14.1319 30.3185 14.5006 29.4283 14.5006 28.5V19.953C14.5006 19.0247 14.1319 18.1345 13.4755 17.4781C12.8191 16.8217 11.9289 16.453 11.0006 16.453H6.14261C6.14261 15.2245 6.21611 13.9925 6.35961 12.764C6.57661 11.462 6.94061 10.3035 7.44461 9.292C7.95211 8.277 8.60311 7.4825 9.40111 6.9015C10.1956 6.2505 11.2071 5.925 12.4391 5.925V0.5C10.4126 0.5 8.64161 0.934 7.11911 1.802C5.60986 2.6612 4.31225 3.84758 3.32161 5.274C2.32734 6.8466 1.59451 8.56994 1.15161 10.377C0.705308 12.3712 0.486908 14.4096 0.500606 16.453V28.5C0.500606 29.4283 0.869355 30.3185 1.52573 30.9749C2.18211 31.6313 3.07235 32 4.00061 32H11.0006Z" fill="#DFE0E3"/>
</svg>
