<svg width="32" height="28" viewBox="0 0 32 28" fill="none" xmlns="http://www.w3.org/2000/svg">
<g clip-path="url(#clip0_1_40662)">
<path d="M30.8262 5.21355C30.7427 5.015 30.6024 4.8456 30.4228 4.7267C30.2432 4.60779 30.0325 4.54469 29.8171 4.54537H25.6716C25.1742 3.67744 24.4836 2.93567 23.6534 2.37749C22.8232 1.81932 21.8757 1.45973 20.8842 1.32656C19.8927 1.1934 18.8839 1.29023 17.9358 1.60957C16.9878 1.92892 16.1259 2.46219 15.4171 3.1681C14.7964 3.77323 14.303 4.49632 13.9658 5.29485C13.6286 6.09339 13.4544 6.95128 13.4534 7.8181V8.64991C7.90344 7.20446 3.36253 2.73173 3.32163 2.67719C3.17899 2.53685 3.00049 2.43846 2.80568 2.39276C2.61087 2.34706 2.40724 2.35583 2.21708 2.4181C2.02752 2.47842 1.85777 2.58882 1.72576 2.73763C1.59375 2.88645 1.50437 3.06815 1.46708 3.26355C0.280716 9.83628 2.25799 14.2408 4.12617 16.7772C5.0632 18.0597 6.20046 19.1832 7.49435 20.1045C5.40799 22.4636 2.18981 23.6908 2.16253 23.7045C2.00864 23.7615 1.86961 23.8526 1.7558 23.9709C1.64199 24.0891 1.55634 24.2316 1.50522 24.3875C1.4541 24.5435 1.43884 24.709 1.46057 24.8717C1.4823 25.0344 1.54046 25.1901 1.63072 25.3272C1.73981 25.4908 2.1489 26.0226 3.14435 26.5272C4.38526 27.1408 6.02163 27.4545 7.9989 27.4545C17.6125 27.4545 25.658 20.0499 26.4762 10.5181L30.5944 6.41355C30.7423 6.25582 30.8427 6.05941 30.8837 5.84705C30.9247 5.63469 30.9048 5.41505 30.8262 5.21355ZM24.6489 9.26355C24.4589 9.45203 24.3469 9.70524 24.3353 9.97264C23.7762 18.5499 16.6034 25.2726 7.9989 25.2726C6.55344 25.2726 5.54435 25.0817 4.83526 24.8499C6.40344 24.0045 8.58526 22.5317 10.0034 20.4181C10.0858 20.2902 10.1404 20.1465 10.1639 19.9962C10.1874 19.8459 10.1792 19.6923 10.1398 19.5454C10.1001 19.3969 10.0299 19.2584 9.93362 19.1387C9.83735 19.0189 9.71715 18.9206 9.58072 18.8499C9.56708 18.8363 7.5489 17.7863 5.81708 15.3999C3.85344 12.6999 3.02163 9.41355 3.3489 5.62264C5.50344 7.39537 9.62163 10.2863 14.3671 11.0772C14.5238 11.1024 14.6841 11.0935 14.837 11.0511C14.99 11.0087 15.132 10.9339 15.2534 10.8317C15.3722 10.7279 15.4676 10.6 15.5334 10.4567C15.5992 10.3133 15.6339 10.1577 15.6353 9.99991V7.8181C15.6373 6.81718 15.9834 5.84739 16.6154 5.07131C17.2475 4.29523 18.1272 3.76003 19.107 3.55544C20.0867 3.35085 21.1071 3.48931 21.9969 3.94761C22.8867 4.40591 23.592 5.15618 23.9944 6.07264C24.0813 6.26758 24.2229 6.43315 24.402 6.54931C24.5811 6.66548 24.79 6.72726 25.0034 6.72719H27.1853L24.6489 9.26355Z" fill="white"/>
</g>
<defs>
<clipPath id="clip0_1_40662">
<rect width="32" height="27.6364" fill="white" transform="translate(0 0.181641)"/>
</clipPath>
</defs>
</svg>
